<svg xmlns="http://www.w3.org/2000/svg" width="16.959" height="16.958" viewBox="0 0 16.959 16.958">
  <g id="Group_3576" data-name="Group 3576" transform="translate(-1281 -147.93)">
    <g id="Group_3534" data-name="Group 3534" transform="translate(1281 147.93)">
      <g id="Group_3533" data-name="Group 3533">
        <path id="Path_3268" data-name="Path 3268" d="M14.971,1.325h-.795V0H12.851V1.325H4.107V0H2.782V1.325H1.987A1.99,1.99,0,0,0,0,3.312V14.971a1.99,1.99,0,0,0,1.987,1.987H14.971a1.99,1.99,0,0,0,1.987-1.987V3.312A1.99,1.99,0,0,0,14.971,1.325Zm.662,13.646a.663.663,0,0,1-.662.662H1.987a.663.663,0,0,1-.662-.662V6.227H15.633Zm0-10.069H1.325V3.312a.663.663,0,0,1,.662-.662h.795V3.975H4.107V2.65h8.744V3.975h1.325V2.65h.795a.663.663,0,0,1,.662.662Z" fill="#fff"/>
      </g>
    </g>
    <g id="Group_3565" data-name="Group 3565" transform="translate(1284 155)">
      <g id="Group_3535" data-name="Group 3535" transform="translate(0 0)">
        <rect id="Rectangle_2575" data-name="Rectangle 2575" width="1.35" height="1.35" fill="#fff"/>
      </g>
    </g>
    <g id="Group_3569" data-name="Group 3569" transform="translate(1284 158)">
      <g id="Group_3535-2" data-name="Group 3535" transform="translate(0 0)">
        <rect id="Rectangle_2575-2" data-name="Rectangle 2575" width="1.35" height="1.35" fill="#fff"/>
      </g>
    </g>
    <g id="Group_3573" data-name="Group 3573" transform="translate(1284 161)">
      <g id="Group_3535-3" data-name="Group 3535" transform="translate(0 0)">
        <rect id="Rectangle_2575-3" data-name="Rectangle 2575" width="1.35" height="1.35" fill="#fff"/>
      </g>
    </g>
    <g id="Group_3566" data-name="Group 3566" transform="translate(1287.223 155)">
      <g id="Group_3535-4" data-name="Group 3535" transform="translate(0 0)">
        <rect id="Rectangle_2575-4" data-name="Rectangle 2575" width="1.35" height="1.35" fill="#fff"/>
      </g>
    </g>
    <g id="Group_3570" data-name="Group 3570" transform="translate(1287.223 158)">
      <g id="Group_3535-5" data-name="Group 3535" transform="translate(0 0)">
        <rect id="Rectangle_2575-5" data-name="Rectangle 2575" width="1.35" height="1.35" fill="#fff"/>
      </g>
    </g>
    <g id="Group_3574" data-name="Group 3574" transform="translate(1287.223 161)">
      <g id="Group_3535-6" data-name="Group 3535" transform="translate(0 0)">
        <rect id="Rectangle_2575-6" data-name="Rectangle 2575" width="1.35" height="1.35" fill="#fff"/>
      </g>
    </g>
    <g id="Group_3567" data-name="Group 3567" transform="translate(1290.447 155)">
      <g id="Group_3535-7" data-name="Group 3535" transform="translate(0 0)">
        <rect id="Rectangle_2575-7" data-name="Rectangle 2575" width="1.35" height="1.35" fill="#fff"/>
      </g>
    </g>
    <g id="Group_3571" data-name="Group 3571" transform="translate(1290.447 158)">
      <g id="Group_3535-8" data-name="Group 3535" transform="translate(0 0)">
        <rect id="Rectangle_2575-8" data-name="Rectangle 2575" width="1.35" height="1.35" fill="#fff"/>
      </g>
    </g>
    <g id="Group_3568" data-name="Group 3568" transform="translate(1293.67 155)">
      <g id="Group_3535-9" data-name="Group 3535" transform="translate(0 0)">
        <rect id="Rectangle_2575-9" data-name="Rectangle 2575" width="1.35" height="1.35" fill="#fff"/>
      </g>
    </g>
    <g id="Group_3572" data-name="Group 3572" transform="translate(1293.67 158)">
      <g id="Group_3535-10" data-name="Group 3535" transform="translate(0 0)">
        <rect id="Rectangle_2575-10" data-name="Rectangle 2575" width="1.35" height="1.35" fill="#fff"/>
      </g>
    </g>
  </g>
</svg>
