<svg xmlns="http://www.w3.org/2000/svg" width="21.885" height="21.885" viewBox="0 0 21.885 21.885"><defs><style>.a{fill:#707070;stroke:#707070;}</style></defs><g transform="translate(0.5 0.5)"><path class="a" d="M240.653,14.794a.653.653,0,0,1-.653-.653V.653a.653.653,0,1,1,1.305,0V14.141A.653.653,0,0,1,240.653,14.794Zm0,0" transform="translate(-230.21)"/><path class="a" d="M158.805,250.1a.648.648,0,0,1-.461-.192l-3.481-3.481a.653.653,0,1,1,.923-.923l3.02,3.02,3.02-3.02a.653.653,0,0,1,.923.923l-3.481,3.481A.654.654,0,0,1,158.805,250.1Zm0,0" transform="translate(-148.363 -235.31)"/><path class="a" d="M18.492,348.294H2.393A2.4,2.4,0,0,1,0,345.9v-3.916a.653.653,0,0,1,1.305,0V345.9a1.089,1.089,0,0,0,1.088,1.088h16.1A1.089,1.089,0,0,0,19.58,345.9v-3.916a.653.653,0,0,1,1.305,0V345.9A2.4,2.4,0,0,1,18.492,348.294Zm0,0" transform="translate(0 -327.409)"/></g></svg>