<?xml version="1.0"?>
<svg xmlns="http://www.w3.org/2000/svg" xmlns:xlink="http://www.w3.org/1999/xlink" version="1.1" id="Capa_1" x="0px" y="0px" viewBox="0 0 502.56 502.56" style="enable-background:new 0 0 502.56 502.56;" xml:space="preserve" width="512px" height="512px"><g><g>
	<g>
		<g>
			<path d="M171.36,148.8L22.72,0L0,22.72l148.8,148.64H75.36v32h112c8.837,0,16-7.163,16-16v-112h-32V148.8z" data-original="#000000" class="active-path" data-old_color="#000000" fill="#FFFFFF"/>
			<path d="M315.36,203.36h112v-32h-73.44L502.56,22.72L480,0L331.36,148.8V75.36h-32v112     C299.36,196.197,306.523,203.36,315.36,203.36z" data-original="#000000" class="active-path" data-old_color="#000000" fill="#FFFFFF"/>
			<path d="M427.36,331.36v-32h-112c-8.837,0-16,7.163-16,16v112h32v-73.44L480,502.56L502.56,480L353.92,331.36H427.36z" data-original="#000000" class="active-path" data-old_color="#000000" fill="#FFFFFF"/>
			<path d="M187.36,299.36h-112v32h73.44L0,480l22.56,22.56l148.8-148.64v73.44h32v-112     C203.36,306.523,196.197,299.36,187.36,299.36z" data-original="#000000" class="active-path" data-old_color="#000000" fill="#FFFFFF"/>
		</g>
	</g>
</g></g> </svg>
