<svg xmlns="http://www.w3.org/2000/svg" width="102.802" height="82.473" viewBox="0 0 102.802 82.473">
  <g id="Group_2628" data-name="Group 2628" transform="translate(-1617 -10905.882)">
    <g id="akku_logo" transform="translate(1632.79 10905.882)">
      <g id="Group_2619" data-name="Group 2619" transform="translate(0 0)">
        <path id="Path_3068" data-name="Path 3068" d="M520.609,228.06l-3.57-5.957-7.705-12.867-.079-.139-8.941-14.929-9-15.029-9.021,15.071-15.013,25.074-11.914,19.9,26.905-14.939.015-.008,9.014-15.053.018-.029.013.019,4.476,7.472.04.067,3.1,5.177h-.018l-7.619-2.654-8.974,4.979-.022.012.2.111,22.314,7.4.022.007,22.411,7.435Z" transform="translate(-455.363 -179.139)"/>
      </g>
    </g>
    <g id="Group_2626" data-name="Group 2626" transform="translate(1617 10975.658)">
      <path id="Path_3069" data-name="Path 3069" d="M520.621,246.021v8.161a4.858,4.858,0,0,1-.777,3.025,5.222,5.222,0,0,1-6.769,0,4.861,4.861,0,0,1-.781-3.025v-8.275h2.977v9.112q0,1.52,1.186,1.518t1.187-1.518v-9Z" transform="translate(-417.833 -245.756)"/>
      <path id="Path_3070" data-name="Path 3070" d="M488.329,250.321l2.579-4.421h3.224l-3.316,5.258,3.718,6.93h-3.346l-1.588-3.194-1.861-3.471Z" transform="translate(-453.088 -245.767)"/>
      <path id="Path_3071" data-name="Path 3071" d="M488.944,250.736h0v-4.867h-2.977V258.2h2.977v-3.452h0Z" transform="translate(-455.629 -245.814)"/>
      <path id="Path_3072" data-name="Path 3072" d="M501.968,250.321l2.579-4.421h3.224l-3.316,5.258,3.717,6.93h-3.345l-1.588-3.194-1.861-3.471Z" transform="translate(-433.489 -245.767)"/>
      <path id="Path_3073" data-name="Path 3073" d="M502.584,250.69h0V245.9H499.6v12.192h2.977v-3.415h0Z" transform="translate(-436.047 -245.767)"/>
      <path id="Path_3074" data-name="Path 3074" d="M480.531,245.845,476.6,258.372h-3.08l4.031-12.527Z" transform="translate(-473.516 -245.845)"/>
      <path id="Path_3075" data-name="Path 3075" d="M475.33,245.845l3.935,12.527h3.08l-4.031-12.527Z" transform="translate(-470.909 -245.845)"/>
    </g>
  </g>
</svg>
