<svg xmlns="http://www.w3.org/2000/svg" width="102.802" height="114.136" viewBox="0 0 102.802 114.136"><g transform="translate(2435 389)"><g transform="translate(-2419 -389)"><g transform="translate(0 0)"><path d="M520.609,228.06l-3.57-5.957-7.705-12.867-.079-.139-8.941-14.929-9-15.029-9.021,15.071-15.013,25.074-11.914,19.9,26.905-14.939.015-.008,9.014-15.053.018-.029.013.019,4.476,7.472.04.067,3.1,5.177h-.018l-7.619-2.654-8.974,4.979-.022.012.2.111,22.314,7.4.022.007,22.411,7.435Z" transform="translate(-455.363 -179.139)"/></g></g><path d="M3.785,0V-12.028h3.46a6.857,6.857,0,0,1,1.781.2,3.379,3.379,0,0,1,1.245.6,2.45,2.45,0,0,1,.735.965,3.273,3.273,0,0,1,.242,1.292,2.593,2.593,0,0,1-.166.918,2.775,2.775,0,0,1-.48.816,3.09,3.09,0,0,1-.769.65,3.694,3.694,0,0,1-1.041.421,3.916,3.916,0,0,1,2.184.944,2.546,2.546,0,0,1,.765,1.93,3.356,3.356,0,0,1-.272,1.377,2.786,2.786,0,0,1-.791,1.037A3.61,3.61,0,0,1,9.4-.225,6.017,6.017,0,0,1,7.687,0Zm.867-5.763V-.7H7.67a3.627,3.627,0,0,0,2.4-.684,2.385,2.385,0,0,0,.807-1.925,2.351,2.351,0,0,0-.217-1.024,2.14,2.14,0,0,0-.625-.773,2.907,2.907,0,0,0-1-.489,4.924,4.924,0,0,0-1.351-.17Zm0-.637h2.61a4.222,4.222,0,0,0,1.424-.213,2.817,2.817,0,0,0,.969-.561,2.179,2.179,0,0,0,.557-.791,2.408,2.408,0,0,0,.179-.91,2.231,2.231,0,0,0-.769-1.84,3.733,3.733,0,0,0-2.376-.625H4.652Zm37.6,4.378a.2.2,0,0,1,.145.059l.34.365a5.612,5.612,0,0,1-.816.718,5.079,5.079,0,0,1-.965.544,5.663,5.663,0,0,1-1.147.349A7.105,7.105,0,0,1,38.44.136,5.853,5.853,0,0,1,36.149-.3a5.087,5.087,0,0,1-1.785-1.241A5.7,5.7,0,0,1,33.2-3.485a7.331,7.331,0,0,1-.417-2.533,6.989,6.989,0,0,1,.429-2.5,5.688,5.688,0,0,1,1.207-1.942,5.381,5.381,0,0,1,1.861-1.258,6.226,6.226,0,0,1,2.393-.446,6.8,6.8,0,0,1,1.2.1,5.5,5.5,0,0,1,1.016.281,4.772,4.772,0,0,1,.888.455,6.838,6.838,0,0,1,.816.629l-.263.382a.237.237,0,0,1-.213.1.361.361,0,0,1-.2-.089q-.119-.089-.3-.221t-.442-.289a3.583,3.583,0,0,0-.616-.289,5.223,5.223,0,0,0-.825-.221,5.7,5.7,0,0,0-1.062-.089,5.238,5.238,0,0,0-2.014.378,4.515,4.515,0,0,0-1.581,1.08,4.931,4.931,0,0,0-1.033,1.7,6.414,6.414,0,0,0-.37,2.24,6.625,6.625,0,0,0,.365,2.278,4.921,4.921,0,0,0,1.012,1.7A4.386,4.386,0,0,0,36.582-.982a4.875,4.875,0,0,0,1.908.37A7,7,0,0,0,39.642-.7a4.516,4.516,0,0,0,.931-.255,4.2,4.2,0,0,0,.791-.417,5.977,5.977,0,0,0,.722-.578A.588.588,0,0,1,42.167-2,.181.181,0,0,1,42.256-2.023Zm34.785-4a7.3,7.3,0,0,1-.416,2.529,5.6,5.6,0,0,1-1.173,1.938A5.187,5.187,0,0,1,73.641-.31,6.038,6.038,0,0,1,71.3.127a5.992,5.992,0,0,1-2.32-.438,5.187,5.187,0,0,1-1.811-1.241,5.655,5.655,0,0,1-1.177-1.938,7.229,7.229,0,0,1-.421-2.529,7.2,7.2,0,0,1,.421-2.52,5.655,5.655,0,0,1,1.177-1.938,5.236,5.236,0,0,1,1.811-1.245,5.942,5.942,0,0,1,2.32-.442,6.038,6.038,0,0,1,2.338.438,5.16,5.16,0,0,1,1.811,1.245,5.648,5.648,0,0,1,1.173,1.942A7.269,7.269,0,0,1,77.041-6.018Zm-.9,0a6.862,6.862,0,0,0-.349-2.261,4.867,4.867,0,0,0-.982-1.7,4.21,4.21,0,0,0-1.526-1.067,5.127,5.127,0,0,0-1.981-.37,5.05,5.05,0,0,0-1.959.37,4.3,4.3,0,0,0-1.53,1.067,4.848,4.848,0,0,0-.994,1.7,6.787,6.787,0,0,0-.353,2.261,6.777,6.777,0,0,0,.353,2.265,4.854,4.854,0,0,0,.994,1.7,4.254,4.254,0,0,0,1.53,1.063A5.1,5.1,0,0,0,71.3-.629a5.18,5.18,0,0,0,1.981-.366,4.166,4.166,0,0,0,1.526-1.063,4.873,4.873,0,0,0,.982-1.7A6.853,6.853,0,0,0,76.14-6.018Zm21.689.578V0h-.867V-12.028h3.068a5.011,5.011,0,0,1,3.111.8,2.811,2.811,0,0,1,1.029,2.359,3.231,3.231,0,0,1-.238,1.258,2.95,2.95,0,0,1-.684,1,3.65,3.65,0,0,1-1.075.706,4.786,4.786,0,0,1-1.42.361,1.377,1.377,0,0,1,.366.34L105.258,0H104.5a.5.5,0,0,1-.234-.051.613.613,0,0,1-.191-.17L100.226-5.1a.854.854,0,0,0-.31-.264A1.3,1.3,0,0,0,99.4-5.44Zm0-.646H99.92a4.951,4.951,0,0,0,1.432-.191,3.083,3.083,0,0,0,1.071-.548,2.367,2.367,0,0,0,.667-.859,2.687,2.687,0,0,0,.229-1.131,2.21,2.21,0,0,0-.841-1.9,4.086,4.086,0,0,0-2.448-.621h-2.2Z" transform="translate(-2437.785 -275)" fill="#101010"/><g transform="translate(-2435 -314.224)"><path d="M520.621,246.021v8.161a4.858,4.858,0,0,1-.777,3.025,5.222,5.222,0,0,1-6.769,0,4.861,4.861,0,0,1-.781-3.025v-8.275h2.977v9.112q0,1.52,1.186,1.518t1.187-1.518v-9Z" transform="translate(-417.833 -245.756)"/><path d="M488.329,250.321l2.579-4.421h3.224l-3.316,5.258,3.718,6.93h-3.346l-1.588-3.194-1.861-3.471Z" transform="translate(-453.088 -245.767)"/><path d="M488.944,250.736h0v-4.867h-2.977V258.2h2.977v-3.452h0Z" transform="translate(-455.629 -245.814)"/><path d="M501.968,250.321l2.579-4.421h3.224l-3.316,5.258,3.717,6.93h-3.345l-1.588-3.194-1.861-3.471Z" transform="translate(-433.489 -245.767)"/><path d="M502.584,250.69h0V245.9H499.6v12.192h2.977v-3.415h0Z" transform="translate(-436.047 -245.767)"/><path d="M480.531,245.845,476.6,258.372h-3.08l4.031-12.527Z" transform="translate(-473.516 -245.845)"/><path d="M475.33,245.845l3.935,12.527h3.08l-4.031-12.527Z" transform="translate(-470.909 -245.845)"/></g></g></svg>