<svg xmlns="http://www.w3.org/2000/svg" width="36.289" height="45.41" viewBox="0 0 36.289 45.41"><defs><style>.a{fill:#fff;}</style></defs><g transform="translate(-51.42)"><path class="a" d="M87.042,33.264a.667.667,0,0,0,.667-.667V2a2,2,0,0,0-2-2h-29.9a2,2,0,0,0-2,2V5.487a2.965,2.965,0,0,0,0,5.818v1.336a2.965,2.965,0,0,0,0,5.818V19.8a2.965,2.965,0,0,0,0,5.819V26.95a2.965,2.965,0,0,0,0,5.818V34.1a2.965,2.965,0,0,0,0,5.818V43.41a2,2,0,0,0,2,2h29.9a2,2,0,0,0,2-2V35.264a.667.667,0,1,0-1.333,0V43.41a.667.667,0,0,1-.667.667h-29.9a.667.667,0,0,1-.667-.667V35.571a1.633,1.633,0,0,1,.87,1.442.667.667,0,1,0,1.333,0,2.97,2.97,0,0,0-2.2-2.865V28.417a1.633,1.633,0,0,1,.87,1.442.667.667,0,1,0,1.333,0,2.97,2.97,0,0,0-2.2-2.865V21.263a1.633,1.633,0,0,1,.87,1.442.667.667,0,1,0,1.333,0,2.97,2.97,0,0,0-2.2-2.865V14.109a1.633,1.633,0,0,1,.87,1.442.667.667,0,1,0,1.333,0,2.97,2.97,0,0,0-2.2-2.865V6.955a1.633,1.633,0,0,1,.87,1.442.667.667,0,1,0,1.333,0,2.97,2.97,0,0,0-2.2-2.865V2a.667.667,0,0,1,.667-.667h29.9A.667.667,0,0,1,86.376,2V32.6A.667.667,0,0,0,87.042,33.264ZM52.753,8.4A1.633,1.633,0,0,1,53.814,6.87V9.923A1.633,1.633,0,0,1,52.753,8.4Zm0,7.154a1.633,1.633,0,0,1,1.061-1.527v3.054A1.633,1.633,0,0,1,52.753,15.551Zm0,7.154a1.633,1.633,0,0,1,1.061-1.527v3.054A1.633,1.633,0,0,1,52.753,22.7Zm0,7.154a1.633,1.633,0,0,1,1.061-1.527v3.054A1.633,1.633,0,0,1,52.753,29.859Zm0,7.154a1.633,1.633,0,0,1,1.061-1.527V38.54A1.633,1.633,0,0,1,52.753,37.013Z" transform="translate(0)"/><path class="a" d="M292.076,56.523a.666.666,0,0,0-.667.667v2.876a.667.667,0,1,0,1.333,0V57.884a7.765,7.765,0,0,1,7.056,7.056h-7.056V62.731a.667.667,0,1,0-1.333,0v2.876a.667.667,0,0,0,.667.667h8.418a.666.666,0,0,0,.667-.667,9.1,9.1,0,0,0-9.084-9.084Z" transform="translate(-218.704 -51.51)"/><path class="a" d="M181.351,93.887a8.43,8.43,0,0,0-8.42,8.42.667.667,0,1,0,1.333,0,7.1,7.1,0,0,1,6.421-7.056v7.056a.712.712,0,0,0,.043.236l2.5,6.6a7.085,7.085,0,0,1-8.544-4.435.666.666,0,1,0-1.254.451A8.423,8.423,0,0,0,184.3,110.2l.036-.012.034-.015a8.434,8.434,0,0,0,5.407-7.862.666.666,0,0,0-.666-.667h-7.087V94.553A.666.666,0,0,0,181.351,93.887Zm3.119,14.782-2.154-5.7h6.092A7.1,7.1,0,0,1,184.47,108.669Z" transform="translate(-110.734 -85.56)"/><path class="a" d="M182.954,329.149H163.1a.667.667,0,0,0,0,1.333h19.857a.667.667,0,0,0,0-1.333Z" transform="translate(-101.164 -299.956)"/><path class="a" d="M183.619,375.725a.667.667,0,0,0-.667-.667H163.1a.667.667,0,1,0,0,1.333h19.857A.666.666,0,0,0,183.619,375.725Z" transform="translate(-101.163 -341.794)"/><path class="a" d="M163.1,420.968a.667.667,0,1,0,0,1.333h14.138a.667.667,0,1,0,0-1.333Z" transform="translate(-101.163 -383.632)"/></g></svg>