<svg xmlns="http://www.w3.org/2000/svg" width="35.925" height="35.925" viewBox="0 0 35.925 35.925"><defs><style>.a{fill:#fff;}</style></defs><g transform="translate(-1 -1)"><circle class="a" cx="0.5" cy="0.5" r="0.5" transform="translate(24.679 17.225)"/><ellipse class="a" cy="0.5" ry="0.5" transform="translate(28.679 17.225)"/><path class="a" d="M47.636,35H46.477a1.16,1.16,0,0,1-1.159,1.159H43v1.159h2.318A2.32,2.32,0,0,0,47.636,35Z" transform="translate(-17.664 -14.299)"/><path class="a" d="M29.837,25.419l-.122-.367a4.062,4.062,0,0,0,2.528-3.193h.046a2.315,2.315,0,0,0,1.928-3.6,14.122,14.122,0,0,0,.39-3.28V10.85a1.74,1.74,0,0,0-1.738-1.738H25.408a3.634,3.634,0,0,0-3.434,2.432,3.633,3.633,0,0,0-2.432,3.433,14.134,14.134,0,0,0,.39,3.281,2.315,2.315,0,0,0,1.928,3.6h.046a4.064,4.064,0,0,0,2.528,3.193l-.122.367A8.858,8.858,0,0,0,17.6,31.581l-.345-2.07a7.458,7.458,0,0,0,1.131-3.946V20.121a1.736,1.736,0,0,0-1.159-1.632V2.159A1.16,1.16,0,0,0,16.065,1H2.159A1.16,1.16,0,0,0,1,2.159v19.7a1.16,1.16,0,0,0,1.159,1.159h.036a1.153,1.153,0,0,0,.4.626l2.084,1.667a2.326,2.326,0,0,1,.7.95l.1.247A7.272,7.272,0,0,0,7.9,29.651L6.883,35.766H1v1.159H36.925v-2.8a8.865,8.865,0,0,0-7.088-8.705Zm-5.159,1.106,1.193.6-1.287.772L24.326,26.6q.174-.042.352-.075Zm2.269,3.448H27.2l1.449,5.794H25.5Zm.289-1.159h-.323l-.268-.8.43-.258.43.258Zm1.042-1.692,1.193-.6q.178.034.353.075l-.258,1.294ZM32.29,20.7V18.383a1.159,1.159,0,0,1,0,2.318ZM20.7,19.542a1.16,1.16,0,0,1,1.159-1.159V20.7A1.16,1.16,0,0,1,20.7,19.542Zm1.159-2.9v.579a2.3,2.3,0,0,0-.925.2,12.989,12.989,0,0,1-.234-2.442,2.477,2.477,0,0,1,1.879-2.406l.337-.085L23,12.15a2.477,2.477,0,0,1,2.406-1.879h7.461a.58.58,0,0,1,.579.579v4.127a12.98,12.98,0,0,1-.234,2.442,2.3,2.3,0,0,0-.925-.2v-.579a1.74,1.74,0,0,0-1.738-1.738H25.916a.58.58,0,0,1-.579-.579V12.589H24.178v1.217A2.9,2.9,0,0,0,21.86,16.645Zm1.159,4.636V16.645A1.742,1.742,0,0,1,24.3,14.967a1.741,1.741,0,0,0,1.616,1.1h4.636a.58.58,0,0,1,.579.579V21.28a2.9,2.9,0,0,1-2.9,2.9H25.916A2.9,2.9,0,0,1,23.019,21.28Zm2.9,4.056h2.318c.118,0,.234-.008.349-.018l.1.3-1.61.8-1.609-.8.1-.3C25.682,25.329,25.8,25.336,25.916,25.336Zm-2.7,1.618.556,2.778,1.856-1.114.265.8-1.587,6.35H21.86V32.29H20.7v3.477H18.383V34.124a7.709,7.709,0,0,1,4.832-7.169ZM2.159,2.159H16.065V18.49c-.022.008-.046.012-.067.021a1.723,1.723,0,0,0-2.83-.834,1.685,1.685,0,0,0-1.738-.345V16.065h3.477V14.907H11.43v-.579a1.719,1.719,0,0,0-.107-.579h3.583V12.589H6.794v1.159H8.06a1.719,1.719,0,0,0-.107.579v.579H3.318v1.159H7.953v1.159H3.318v1.159H7.953V21.1a.755.755,0,0,1-1.174.628l-.688-.459A3.4,3.4,0,0,0,4.2,20.7,2.036,2.036,0,0,0,2.367,21.86H2.159Zm4.4,23.919-.1-.247A3.484,3.484,0,0,0,5.4,24.407L3.318,22.74a.881.881,0,0,1,.881-.88,2.245,2.245,0,0,1,1.25.378l.688.459A1.914,1.914,0,0,0,9.112,21.1V14.327a.579.579,0,0,1,1.159,0v8.692H11.43V18.963a.579.579,0,1,1,1.159,0v4.056h1.159V18.963a.579.579,0,1,1,1.159,0v4.056h1.159v-2.9a.579.579,0,0,1,1.159,0v5.444a6.292,6.292,0,0,1-.9,3.248H8.713a6.125,6.125,0,0,1-2.157-2.735Zm2.467,3.894h7.131l.966,5.794H8.058Zm26.743,5.794H33.449V32.29H32.29v3.477H29.844l-1.587-6.351.265-.8,1.856,1.114.556-2.778a7.71,7.71,0,0,1,4.832,7.17Z"/><path class="a" d="M15.953,11.953a3.477,3.477,0,0,0-1.8-3.044,2.318,2.318,0,1,0-3.353,0A3.477,3.477,0,0,0,9,11.953v1.159h6.953ZM11.318,7.318a1.159,1.159,0,1,1,1.159,1.159A1.16,1.16,0,0,1,11.318,7.318Zm-1.159,4.636a2.318,2.318,0,0,1,4.636,0Z" transform="translate(-3.364 -1.682)"/><path class="a" d="M5,21H7.318v1.159H5Z" transform="translate(-1.682 -8.411)"/></g></svg>