<svg id="social-distancing" xmlns="http://www.w3.org/2000/svg" width="40" height="40" viewBox="0 0 40 40">
  <g id="Group_96" data-name="Group 96" transform="translate(0 0)">
    <path id="Path_119" data-name="Path 119" d="M9.36,99.269a3.743,3.743,0,1,0-5.395,0A4.38,4.38,0,0,0,0,103.623V111.2a1.848,1.848,0,0,0,2.526,1.72v9.191a1.376,1.376,0,0,0-.79,1.242v.947a1.377,1.377,0,0,0,1.375,1.375h7.1a1.377,1.377,0,0,0,1.375-1.375v-.947a1.376,1.376,0,0,0-.789-1.242v-3.862a.586.586,0,1,0-1.172,0v3.729H7.249v-7.509h.44a.586.586,0,1,0,0-1.172H5.637a.586.586,0,1,0,0,1.172h.44v7.509H3.7V111.786h5.93v3.729a.586.586,0,0,0,1.172,0v-2.595a1.848,1.848,0,0,0,2.525-1.72v-7.576A4.38,4.38,0,0,0,9.36,99.269Zm-2.7-5.161a2.571,2.571,0,1,1-2.571,2.571A2.574,2.574,0,0,1,6.663,94.108ZM1.849,111.876a.678.678,0,0,1-.677-.677v-5.333H2.525V111.2A.678.678,0,0,1,1.849,111.876ZM2.908,124.3v-.947a.2.2,0,0,1,.2-.2H6.077V124.5H3.111a.2.2,0,0,1-.2-.2Zm7.509,0a.2.2,0,0,1-.2.2H7.249V123.15h2.965a.2.2,0,0,1,.2.2Zm1.059-12.424a.678.678,0,0,1-.677-.676h0v-5.332h1.354V111.2A.678.678,0,0,1,11.477,111.876Zm.677-7.182H10.8V103.7a.586.586,0,0,0-1.172,0v6.911H3.7V103.7a.586.586,0,0,0-1.172,0v.992H1.172v-1.071a3.206,3.206,0,0,1,3.2-3.2H8.951a3.206,3.206,0,0,1,3.2,3.2Z" transform="translate(0 -85.675)" fill="#fff"/>
    <path id="Path_120" data-name="Path 120" d="M350.79,99.269a3.743,3.743,0,1,0-5.395,0,4.38,4.38,0,0,0-3.965,4.354v2.867a.586.586,0,1,0,1.172,0v-.624h1.354V111.2h0a.677.677,0,0,1-.677.677.678.678,0,0,1-.677-.677v-1.974a.586.586,0,0,0-1.172,0V111.2a1.85,1.85,0,0,0,2.526,1.721v9.191a1.376,1.376,0,0,0-.789,1.242v.947a1.377,1.377,0,0,0,1.375,1.375h7.1a1.377,1.377,0,0,0,1.375-1.375v-.947a1.376,1.376,0,0,0-.79-1.242v-3.862a.586.586,0,1,0-1.172,0v3.729h-2.379v-7.509h.44a.586.586,0,0,0,0-1.172h-2.052a.586.586,0,0,0,0,1.172h.44v7.509h-2.38V111.786h5.93v3.729a.586.586,0,0,0,1.172,0v-2.6a1.848,1.848,0,0,0,2.526-1.72v-7.576A4.38,4.38,0,0,0,350.79,99.269Zm-2.7-5.161a2.571,2.571,0,1,1-2.571,2.571A2.574,2.574,0,0,1,348.093,94.108ZM342.6,104.695v-1.071a3.206,3.206,0,0,1,3.2-3.2h4.577a3.206,3.206,0,0,1,3.2,3.2v1.071H352.23V103.7a.586.586,0,0,0-1.172,0v6.911h-5.931V103.7a.586.586,0,0,0-1.172,0v.992Zm1.736,19.605v-.947a.2.2,0,0,1,.2-.2h2.965V124.5h-2.965A.2.2,0,0,1,344.338,124.3Zm7.509,0a.2.2,0,0,1-.2.2h-2.965V123.15h2.965a.2.2,0,0,1,.2.2Zm1.059-12.424a.678.678,0,0,1-.677-.677v-5.333h1.354V111.2A.678.678,0,0,1,352.907,111.876Z" transform="translate(-314.756 -85.675)" fill="#fff"/>
    <path id="Path_121" data-name="Path 121" d="M166.826,110.232l-1.973-1.973a.586.586,0,1,0-.829.829l.973.973H152.516l.973-.973a.586.586,0,1,0-.829-.829l-1.973,1.973a.586.586,0,0,0,0,.829l1.973,1.973a.586.586,0,1,0,.829-.829l-.973-.973H165l-.973.973a.586.586,0,1,0,.829.829l1.973-1.973A.586.586,0,0,0,166.826,110.232Z" transform="translate(-138.756 -99.643)" fill="#fff"/>
    <path id="Path_122" data-name="Path 122" d="M248.579,6.175a.586.586,0,0,0,.681-.473l.534-2.958.88,2.981.006.021a.7.7,0,0,0,.664.477h0a.7.7,0,0,0,.662-.484l.006-.02.849-2.979.567,2.968a.586.586,0,0,0,1.151-.22L253.641.561a.7.7,0,0,0-1.352-.076l-.006.02-.948,3.324L250.353.5l-.006-.021a.7.7,0,0,0-1.352.1l-.888,4.919A.586.586,0,0,0,248.579,6.175Z" transform="translate(-228.715 -0.001)" fill="#fff"/>
    <path id="Path_123" data-name="Path 123" d="M181.223,2.183a.586.586,0,0,0,.688-.462.682.682,0,0,1,1.35.1l-.015.117a2.725,2.725,0,0,1-.43.846c-.784,1.121-1.252,1.734-1.5,2.063-.316.413-.46.6-.36.925a.609.609,0,0,0,.4.4,4.162,4.162,0,0,0,1.124.05c.378,0,.891,0,1.593-.013a.586.586,0,1,0-.015-1.172c-.482.006-.992.01-1.422.011.273-.366.648-.879,1.148-1.594a3.788,3.788,0,0,0,.617-1.279,1.921,1.921,0,0,0,.04-.324,1.854,1.854,0,0,0-3.672-.359.586.586,0,0,0,.462.688Z" transform="translate(-166.629 0)" fill="#fff"/>
  </g>
</svg>
