<?xml version="1.0" encoding="utf-8"?>
<!-- Generator: Adobe Illustrator 24.2.0, SVG Export Plug-In . SVG Version: 6.00 Build 0)  -->
<svg version="1.1" id="Layer_1" xmlns="http://www.w3.org/2000/svg" xmlns:xlink="http://www.w3.org/1999/xlink" x="0px" y="0px"
	 viewBox="0 0 522.3 519.4" style="enable-background:new 0 0 522.3 519.4;" xml:space="preserve">
<style type="text/css">
	.st0{fill:#FFFFFF;}
	.st1{fill:none;stroke:#FFFFFF;stroke-width:30;stroke-miterlimit:10;}
</style>
<g id="Layer_2_1_">
	<g id="Capa_1">
		<path class="st0" d="M182.9,279l37.1-19.5L182.9,240l22.4-35.5l-41.9,1.6l1.6-41.9l-35.5,22.4L110,149.5l-19.5,37.1L55,164.2
			l1.6,41.9l-41.9-1.6L37.1,240L0,259.5L37.1,279l-22.4,35.4l41.9-1.6L55,354.7l35.5-22.4l19.5,37.1l19.5-37.1l35.5,22.4l-1.6-41.9
			l41.9,1.6L182.9,279z M110,314.4c-30.4,0-55-24.6-55-55s24.6-55,55-55s55,24.6,55,55l0,0C165,289.8,140.4,314.4,110,314.4z"/>
		<path class="st0" d="M460.7,477.1c-10.1,7.1-17.5,12.3-34,12.3s-23.9-5.1-34-12.3c-11.2-7.9-25.2-17.7-51.3-17.7
			s-40.1,9.8-51.3,17.7c-10.1,7.1-17.5,12.3-34,12.3s-23.9-5.1-34-12.3c-11.2-7.9-25.2-17.7-51.3-17.7s-40.1,9.8-51.3,17.7
			c-10.1,7.1-17.5,12.3-34,12.3s-23.9-5.1-34-12.3c-11.4-7.9-25.4-17.7-51.5-17.7v30c16.6,0,23.9,5.1,34,12.3
			c11.2,7.9,25.2,17.7,51.3,17.7s40.1-9.8,51.3-17.7c10.1-7.1,17.4-12.3,34-12.3s23.9,5.1,34,12.3c11.2,7.9,25.2,17.7,51.3,17.7
			s40-9.8,51.3-17.7c10.1-7.1,17.5-12.3,34-12.3s23.9,5.1,34,12.3c11.2,7.9,25.2,17.7,51.3,17.7s40.1-9.8,51.3-17.7
			c10.1-7.1,17.5-12.3,34-12.3v-30C485.9,459.4,471.9,469.3,460.7,477.1z"/>
		<path class="st0" d="M469.5,437.5c-11.4,4.8-19.9,10.7-26.1,15.1c-8.8,6.2-9.7,6.8-16.8,6.8s-8-0.6-16.8-6.8
			c-12.3-8.7-33-23.2-68.6-23.2s-56.2,14.5-68.5,23.2c-8.8,6.2-9.7,6.8-16.8,6.8s-8-0.6-16.8-6.8c-12.3-8.7-33-23.2-68.5-23.2
			s-56.2,14.6-68.5,23.2c-8.8,6.2-9.7,6.8-16.8,6.8s-8-0.6-16.8-6.8c-6.3-4.4-14.7-10.3-26.1-15.1c64.5-38.8,138.3-59.2,213.6-59.1
			c1.8,0,3.5,0,5.3,0l68.8-189l27.9,11L292.6,380C355.2,385.5,415.7,405.1,469.5,437.5L469.5,437.5z"/>
		<path class="st1" d="M189.4,147.4c12.4,0.9,55,5.8,95.2,32.9c0.3,0.2,0.6,0.3,1,0.4c56.7,6.7,83.5,13.6,107.4,37.7
			c0.4,0.4,0.9,0.6,1.4,0.7c7.8,0.8,70.1,8.1,98.8,38.1c0.9,0.9,2.3,1,3.3,0.1c0.3-0.3,0.5-0.6,0.6-1c7.6-26,43.9-173.4-91.1-220.1
			C270.3-10.9,198.6,121.3,187.4,144c-0.6,1.2-0.1,2.6,1.1,3.2C188.8,147.3,189.1,147.4,189.4,147.4z"/>
		
			<rect x="408.6" y="-0.1" transform="matrix(0.3497 -0.9369 0.9369 0.3497 258.4448 401.9406)" class="st0" width="20.3" height="29.9"/>
	</g>
</g>
</svg>
