<?xml version="1.0" encoding="utf-8"?>
<!-- Generator: Adobe Illustrator 24.2.0, SVG Export Plug-In . SVG Version: 6.00 Build 0)  -->
<svg version="1.1" id="Layer_1" xmlns="http://www.w3.org/2000/svg" xmlns:xlink="http://www.w3.org/1999/xlink" x="0px" y="0px"
	 viewBox="0 0 75 75" style="enable-background:new 0 0 75 75;" xml:space="preserve">
<style type="text/css">
	.st0{fill:#FFFFFF;}
	.st1{fill:none;}
</style>
<g>
	<path class="st0" d="M63,22.9c0,0.9,0,1.8,0,2.6c0.1,2.1-0.8,3.8-2.1,5.3c-0.4,0.5-0.6,1.3-0.6,1.9c0,0.2,0.8,0.6,1.3,0.7
		c0.9,0.3,1.9,0.4,3.1,0.6c0-0.9,0-1.7,0-2.5c0-0.7,0.3-1.4,1-1.3c0.4,0.1,0.9,0.8,1,1.3c0.2,0.9,0,1.9,0,2.8c1,0.4,1.9,0.7,2.7,1.2
		c1.8,1.2,3,2.9,3.1,5.1c0.2,5,0.3,10,0.5,15c0.1,4.7-1.2,6.8-5.7,8.5c0.2,2,0.4,4.1,0.7,6.1c0.3,2.3-0.3,3.2-2.6,3.2
		c-6.8,0-13.6,0-20.4,0c-2.1,0-2.8-0.9-2.5-3c0.3-1.8,0.4-3.6,0.6-5.4c0-0.3,0-0.8,0.2-1c1.2-1.9,0.2-3.9,0.3-5.8c0.1-2,0-3.9,0-6.1
		c-0.6,0-1.1,0-1.6,0c-12.6,0-25.2,0-37.9,0c-1.3,0-2.4-0.4-2.9-1.7C0.8,49.2,1,46.8,2,46.2c0.7-0.5,1.7-0.7,2.7-1.1
		c0-12,0-24.4,0-36.8c-0.5,0-1,0-1.5-0.1c-1.6-0.4-2.3-1.8-2-4.3c0.2-1.5,1.1-2.4,2.8-2.4c19.6,0,39.2,0,58.8,0c1.8,0,2.8,1,2.8,2.8
		c0.1,3-0.6,3.8-3.7,4.1c0,1.6-0.5,3.1,1.3,4.4c2.5,1.9,3.6,4.7,3.7,7.9c0.1,2,0,4,0,5.9c0,0.8-0.1,1.6-1.1,1.6c-1,0-1-0.9-1-1.6
		c0-0.6-0.1-1.1,0-1.7C64.9,23.6,64.4,22.9,63,22.9z M7,45.4c0.8,0,1.5-0.1,2.2,0c0.5,0.1,1.3,0.6,1.3,1c0.1,0.8-0.6,1.1-1.4,1.1
		c-1.5,0-3,0-4.5,0c-0.9,0-1.5,0.1-1.5,1.3c0,1.2,0.6,1.3,1.5,1.3c9.3,0,18.6,0,27.8,0c0.4,0,0.7,0,1.2-0.1c-2-1.7-4-2.7-6.6-2.5
		c-4.3,0.2-8.6,0.1-12.8,0.1c-0.8,0-1.6-0.1-1.5-1.1c0-1,0.8-1,1.6-1c2.3,0,4.6,0,6.9,0c1.8,0,3.6,0,5.3,0c0.1-0.1,0.2-0.3,0.2-0.4
		c-0.5-0.4-0.9-0.7-1.4-1.1c-1.3-0.9-1.8-2.1-1.8-3.6c0-0.4-0.3-1-0.7-1.3c-1.8-1.4-3.7-2.6-5.6-3.9c-0.6-0.4-1.2-0.8-0.7-1.6
		c0.5-0.8,1.2-0.6,1.9-0.1c1.9,1.3,3.8,2.7,5.7,3.9c0.3,0.2,1,0.3,1.3,0.2c1.4-0.6,2.7-0.5,4,0.4c0.9,0.7,1.9,1.3,2.9,1.9
		c1.7,1.2,3.4,2.4,5.3,3.7c0.1-0.9,0.2-1.7,0.3-2.4c0.2-2.9,2-5.4,4.7-6.1c0.9-0.3,1.1-0.7,1.1-1.5c0-4.1,0-8.2,0-12.3
		C44,14.4,48.5,9.9,55,10c1.5,0,3.1,0.2,4.6,0.3c0-0.6,0-1.3,0-2c-17.6,0-35.1,0-52.6,0C7,20.7,7,32.9,7,45.4z M67,61.9
		c2.7-0.8,4-2.7,3.9-5.4c-0.2-5.2-0.3-10.4-0.5-15.6c-0.1-2.4-2.2-4.3-4.4-4.2c-0.9,1.5-1.6,3-2.6,4.1c-5.7,6-16.3,3.4-18.2-3.5
		c-0.1-0.3-0.7-0.6-1-0.6c-1.8,0.2-3.4,1.6-3.8,3.4c-0.2,0.9-0.2,1.9-0.3,2.8c-0.2,2.5-2,3.3-4,1.9c-1.6-1.1-3.2-2.2-4.7-3.3
		c-0.7,1-1.3,2-2,2.9c2,1.3,4.1,2.4,5.9,3.9c2.6,2.2,5.5,1.7,8.5,1.7c0-0.8-0.1-1.5,0-2.1c0.1-0.4,0.5-0.8,0.8-0.9
		c0.3,0,0.8,0.3,1.1,0.7c0.2,0.3,0.1,0.8,0.1,1.1c0,3.4,0,6.7,0,10.1c0,2.3,0.9,3.2,3.2,3.2c4.6,0,9.2,0,13.9,0c0.6,0,1.3,0,2,0
		c0-1.7,0-3.2,0-4.8c0-3,0-5.9,0-8.9c0-0.7,0.2-1.4,1.1-1.5c0.9,0,1.1,0.7,1.1,1.4c0,1.1,0,2.2,0,3.2C67,55,67,58.4,67,61.9z
		 M33.2,3.5c-9.5,0-19.1,0-28.6,0C3.5,3.5,3.2,3.8,3.2,5C3.2,6.2,4,6,4.8,6c13.5,0,26.9,0,40.4,0c5.7,0,11.3,0,16.9,0
		c0.9,0,1.4-0.2,1.4-1.2c0-1.1-0.3-1.4-1.4-1.4C52.5,3.5,42.9,3.5,33.2,3.5z M45.5,63.8c-0.3,2.4-0.6,4.9-0.9,7.4
		c7.3,0,14.3,0,21.4,0c-0.2-2-0.5-3.9-0.7-5.8c-0.1-0.9-0.5-1.1-1.3-1.1c-4.8,0-9.7,0-14.5,0C48.4,64.2,47.1,63.9,45.5,63.8z
		 M64.3,21.1c0.1-0.1,0.2-0.2,0.4-0.3c0.1-2-0.5-3.8-1.7-5.3c-2.3-3.1-5.6-3.8-9.1-3.4c-3.4,0.4-6.1,2.1-7.2,5.4
		c-1.5,4.5-1,4.9,3.5,4.7c3.6-0.2,6.7-1.8,9.6-3.9c1.3-0.9,1.5-0.8,2.4,0.5C62.7,19.7,63.6,20.4,64.3,21.1z M53.1,33.5
		c-1.1,0.7-1.9,1.5-2.8,1.9c-1,0.4-2.1,0.5-3.2,0.8c1,3.8,4.6,6.1,8.7,5.9c4-0.3,7.2-2.7,7.6-5.9c-1.9-0.8-4.5-0.1-5.5-2.9
		C56.2,34.3,54.5,34.2,53.1,33.5z M60.7,20.3c-3.5,2.4-7,3.8-10.7,4.2c-0.6,3.4,1.5,5.1,3.6,6.7c1.3,1,2.3,0.9,3.6,0
		c2.5-1.7,4.1-3.8,3.8-7.1c-0.1-0.8,0-1.5,0-2.3C60.9,21.4,60.8,21,60.7,20.3z M46.1,24c0,3.3,0,6.6,0,10c1.2-0.2,2.2-0.4,3.2-0.6
		c1.4-0.3,1.7-1.4,0.7-2.5c-1.3-1.4-2.2-2.9-2.3-4.9c0-0.6-0.1-1.2-0.1-1.8C47.1,24.2,46.6,24.1,46.1,24z M27.8,39.1
		c-1.4,0.1-1.9,0.6-2,1.5c-0.1,0.9,1,2.2,1.7,1.8c0.7-0.4,1.4-1.2,1.6-2C29.2,40.1,28.1,39.5,27.8,39.1z"/>
	<path class="st1" d="M7,45.4C7,32.9,7,20.7,7,8.3c17.5,0,35,0,52.6,0c0,0.7,0,1.4,0,2C58.1,10.2,56.5,10,55,10
		c-6.5,0-11,4.4-11.1,11.1c0,4.1,0,8.2,0,12.3c0,0.8-0.2,1.3-1.1,1.5c-2.7,0.7-4.5,3.3-4.7,6.1c0,0.8-0.2,1.5-0.3,2.4
		c-1.9-1.3-3.6-2.5-5.3-3.7c-0.9-0.7-1.9-1.3-2.9-1.9c-1.3-0.9-2.6-1-4-0.4c-0.4,0.1-1,0.1-1.3-0.2c-1.9-1.3-3.8-2.6-5.7-3.9
		c-0.7-0.5-1.3-0.8-1.9,0.1c-0.5,0.8,0.1,1.3,0.7,1.6c1.9,1.3,3.7,2.6,5.6,3.9c0.4,0.3,0.7,0.9,0.7,1.3c0,1.6,0.5,2.8,1.8,3.6
		c0.5,0.3,0.9,0.7,1.4,1.1c-0.1,0.1-0.2,0.3-0.2,0.4c-1.8,0-3.6,0-5.3,0c-2.3,0-4.6,0-6.9,0c-0.8,0-1.6,0-1.6,1c0,1,0.8,1.1,1.5,1.1
		c4.3,0,8.6,0.2,12.8-0.1c2.6-0.1,4.6,0.8,6.6,2.5c-0.5,0-0.8,0.1-1.2,0.1c-9.3,0-18.6,0-27.8,0c-0.9,0-1.5,0-1.5-1.3
		c0-1.2,0.6-1.3,1.5-1.3c1.5,0,3,0,4.5,0c0.8,0,1.5-0.3,1.4-1.1c-0.1-0.4-0.8-0.8-1.3-1C8.6,45.3,7.9,45.4,7,45.4z"/>
	<path class="st1" d="M67,61.9c0-3.5,0-6.9,0-10.3c0-1.1,0-2.2,0-3.2c0-0.7-0.1-1.5-1.1-1.4c-0.9,0-1.1,0.7-1.1,1.5c0,3,0,5.9,0,8.9
		c0,1.5,0,3.1,0,4.8c-0.8,0-1.4,0-2,0c-4.6,0-9.2,0-13.9,0c-2.3,0-3.2-0.9-3.2-3.2c0-3.4,0-6.7,0-10.1c0-0.4,0.1-0.9-0.1-1.1
		C45.4,47.3,45,47,44.6,47c-0.3,0-0.8,0.5-0.8,0.9c-0.1,0.7,0,1.3,0,2.1c-3.1,0.1-5.9,0.5-8.5-1.7c-1.8-1.5-3.9-2.6-5.9-3.9
		c0.7-1,1.3-1.9,2-2.9c1.6,1.1,3.2,2.2,4.7,3.3c2,1.4,3.8,0.6,4-1.9c0.1-0.9,0.1-1.9,0.3-2.8c0.4-1.8,2-3.2,3.8-3.4
		c0.3,0,0.9,0.3,1,0.6c1.9,6.9,12.5,9.5,18.2,3.5c1.1-1.1,1.7-2.6,2.6-4.1c2.2-0.1,4.3,1.8,4.4,4.2c0.2,5.2,0.4,10.4,0.5,15.6
		C71,59.2,69.7,61.1,67,61.9z"/>
	<path class="st1" d="M33.2,3.5c9.6,0,19.2,0,28.9,0c1.1,0,1.4,0.3,1.4,1.4c0,1-0.5,1.2-1.4,1.2c-5.7,0-11.3,0-16.9,0
		c-13.5,0-26.9,0-40.4,0C4,6.1,3.2,6.2,3.2,5c0-1.1,0.3-1.5,1.4-1.5C14.2,3.5,23.7,3.5,33.2,3.5z"/>
	<path class="st0" d="M38.9,15.4H12.5c-0.5,0-0.9-0.4-0.9-0.9l0,0c0-0.5,0.4-0.9,0.9-0.9h26.4c0.5,0,0.9,0.4,0.9,0.9l0,0
		C39.8,15,39.4,15.4,38.9,15.4z"/>
	<path class="st0" d="M38.9,23.2H12.5c-0.5,0-0.9-0.4-0.9-0.9l0,0c0-0.5,0.4-0.9,0.9-0.9h26.4c0.5,0,0.9,0.4,0.9,0.9l0,0
		C39.8,22.8,39.4,23.2,38.9,23.2z"/>
	<path class="st0" d="M27.1,30.4H12.5c-0.5,0-0.9-0.4-0.9-0.9l0,0c0-0.5,0.4-0.9,0.9-0.9h14.6c0.5,0,0.9,0.4,0.9,0.9l0,0
		C28,30,27.6,30.4,27.1,30.4z"/>
</g>
</svg>
