<?xml version="1.0" encoding="utf-8"?>
<!-- Generator: Adobe Illustrator 24.2.0, SVG Export Plug-In . SVG Version: 6.00 Build 0)  -->
<svg version="1.1" id="Capa_1" xmlns="http://www.w3.org/2000/svg" xmlns:xlink="http://www.w3.org/1999/xlink" x="0px" y="0px"
	 viewBox="0 0 75 75" style="enable-background:new 0 0 75 75;" xml:space="preserve">
<style type="text/css">
	.st0{fill:#FFFFFF;}
</style>
<g>
	<g>
		<g>
			<path class="st0" d="M28.3,5L28.3,5c-0.4-1.3-1.7-2-2.9-1.5c0,0-0.1,0-0.1,0c-1.2,0.4-1.7,1.8-1.2,3l0,0.1
				c0.5,1.1,1.7,1.6,2.8,1.2c0,0,0,0,0,0C28.1,7.3,28.7,6.2,28.3,5z"/>
			<path class="st0" d="M20.2,8.7L20.2,8.7C19.5,7.6,18,7.3,17,8c0,0-0.1,0.1-0.1,0.1c-1,0.7-1.2,2.2-0.4,3.2l0.1,0.1
				c0.7,0.9,2.1,1.1,3,0.4c0,0,0,0,0,0C20.5,11,20.8,9.7,20.2,8.7z"/>
			<path class="st0" d="M6.5,37.3c0-7.2,2.5-14.2,7-19.8c0.7-0.9,0.6-2.2-0.2-3l-0.1-0.1c-0.9-0.9-2.4-0.8-3.2,0.2
				C-1.8,29.2-0.5,50.7,13.6,63.7c2.1,2,4.5,3.7,7,5.1H4.2C3,68.8,2,69.7,2,71v0.1c0,1.2,1,2.2,2.2,2.2H29c1.2,0,2.2-1,2.2-2.2v-3
				l-1.6-0.4C16,63.8,6.5,51.4,6.5,37.3z"/>
			<path class="st0" d="M74,37.3c0-19.9-16.2-36-36.1-36c-1.1,0-2.2,0.1-3.3,0.2c-1.3,0.1-2.2,1.3-2,2.5l0,0.1
				c0.2,1.2,1.2,2,2.4,1.8c16.4-1.6,31.4,9.8,34.1,26.2c2.6,15.9-7.2,31.3-22.8,35.5l-1.6,0.5v3c0,1.2,1,2.2,2.2,2.2h24.8
				c1.2,0,2.2-1,2.2-2.2V71c0-1.2-1-2.2-2.2-2.2H55.4C66.9,62.4,74,50.3,74,37.3z"/>
		</g>
	</g>
</g>
</svg>
