<?xml version="1.0" encoding="utf-8"?>
<!-- Generator: Adobe Illustrator 24.2.0, SVG Export Plug-In . SVG Version: 6.00 Build 0)  -->
<svg version="1.1" id="_x33_0" xmlns="http://www.w3.org/2000/svg" xmlns:xlink="http://www.w3.org/1999/xlink" x="0px" y="0px"
	 viewBox="0 0 75 75" style="enable-background:new 0 0 75 75;" xml:space="preserve">
<style type="text/css">
	.st0{fill:#FFFFFF;}
</style>
<g>
	<circle class="st0" cx="49.7" cy="35.7" r="1.2"/>
	<circle class="st0" cx="59" cy="35.7" r="1.2"/>
	<path class="st0" d="M60.2,41.5h-2.3c0,1.3-1,2.3-2.3,2.3H51v2.3h4.6C58.1,46.1,60.2,44.1,60.2,41.5z"/>
	<path class="st0" d="M59.9,51l-0.2-0.7c2.7-1.1,4.6-3.5,5.1-6.4h0.1c2.6,0,4.6-2.1,4.6-4.6c0-1-0.3-1.8-0.8-2.6
		c0.5-2.2,0.8-4.4,0.8-6.6v-8.3c0-1.9-1.6-3.5-3.5-3.5H51c-3.1,0-5.9,2-6.9,4.9c-2.9,1-4.9,3.8-4.9,6.9c0,2.2,0.3,4.4,0.8,6.6
		c-0.5,0.7-0.8,1.6-0.8,2.6c0,2.6,2.1,4.6,4.6,4.6H44c0.4,2.9,2.4,5.3,5.1,6.4L48.8,51c-6.6,1.4-11.6,6.2-13.5,12.3l-0.7-4.1
		c1.5-2.4,2.3-5.1,2.3-7.9v-11c0-1.5-1-2.8-2.3-3.3V4.3c0-1.3-1-2.3-2.3-2.3H4.4C3.1,2,2.1,3,2.1,4.3v39.5c0,1.3,1,2.3,2.3,2.3h0.1
		c0.1,0.5,0.4,0.9,0.8,1.3l4.2,3.3c0.6,0.5,1.1,1.2,1.4,1.9l0.2,0.5c1,2.5,2.7,4.7,4.9,6.3l-2,12.3H2.1V74h72v-5.6
		C74.1,59.9,68.2,52.7,59.9,51L59.9,51z M49.6,53.2l2.4,1.2l-2.6,1.5l-0.5-2.6C49.1,53.3,49.3,53.2,49.6,53.2L49.6,53.2z M54.1,60.1
		h0.5l2.9,11.6h-6.3L54.1,60.1z M54.7,57.8H54l-0.5-1.6l0.9-0.5l0.9,0.5L54.7,57.8z M56.8,54.4l2.4-1.2c0.2,0,0.5,0.1,0.7,0.2
		L59.4,56L56.8,54.4z M64.8,41.5v-4.6c1.3,0,2.3,1,2.3,2.3C67.1,40.5,66.1,41.5,64.8,41.5z M41.6,39.2c0-1.3,1-2.3,2.3-2.3v4.6
		C42.6,41.5,41.6,40.5,41.6,39.2z M43.9,33.4v1.2c-0.7,0-1.3,0.1-1.9,0.4c-0.3-1.6-0.5-3.3-0.5-4.9c0-2.3,1.5-4.3,3.8-4.8L46,25
		l0.2-0.7c0.6-2.2,2.5-3.8,4.8-3.8h15c0.6,0,1.2,0.5,1.2,1.2V30c0,1.6-0.2,3.3-0.5,4.9c-0.6-0.2-1.2-0.4-1.9-0.4v-1.2
		c0-1.9-1.6-3.5-3.5-3.5H52c-0.6,0-1.2-0.5-1.2-1.2v-3.5h-2.3v2.4C45.9,28.2,43.9,30.6,43.9,33.4L43.9,33.4z M46.2,42.7v-9.3
		c0-1.6,1.1-3,2.6-3.4c0.5,1.3,1.8,2.2,3.2,2.2h9.3c0.6,0,1.2,0.5,1.2,1.2v9.3c0,3.2-2.6,5.8-5.8,5.8H52
		C48.8,48.5,46.2,45.9,46.2,42.7z M52,50.8h4.6c0.2,0,0.5,0,0.7,0l0.2,0.6L54.4,53l-3.2-1.6l0.2-0.6C51.6,50.8,51.8,50.8,52,50.8z
		 M46.6,54l1.1,5.6l3.7-2.2L52,59l-3.2,12.7h-4.9v-7h-2.3v7H37v-3.3C36.9,61.9,40.9,56.4,46.6,54L46.6,54z M4.4,4.3h27.9V37h-0.1
		c-0.4-1.5-1.7-2.6-3.3-2.6c-0.9,0-1.7,0.3-2.3,0.9c-0.6-0.6-1.4-0.9-2.3-0.9c-0.4,0-0.8,0.1-1.2,0.2v-2.5h7v-2.3h-7v-1.2
		c0-0.4-0.1-0.8-0.2-1.2H30v-2.3H13.7v2.3h2.5c-0.1,0.4-0.2,0.8-0.2,1.2v1.2H6.7v2.3H16v2.3H6.7v2.3H16v5.5c0,0.8-0.7,1.5-1.5,1.5
		c-0.3,0-0.6-0.1-0.8-0.3l-1.4-0.9c-1.1-0.8-2.4-1.1-3.8-1.1c-1.6,0-3,1-3.7,2.3H4.4V4.3z M13.2,52.3L13,51.8
		c-0.4-1.1-1.2-2.1-2.1-2.9l-4.2-3.3c0-1,0.8-1.8,1.8-1.8c0.9,0,1.8,0.3,2.5,0.8l1.4,0.9c0.6,0.4,1.4,0.6,2.1,0.6
		c2.1,0,3.8-1.7,3.8-3.8V28.7c0-0.6,0.5-1.2,1.2-1.2c0.6,0,1.2,0.5,1.2,1.2v17.4H23V38c0-0.6,0.5-1.2,1.2-1.2c0.6,0,1.2,0.5,1.2,1.2
		v8.1h2.3V38c0-0.6,0.5-1.2,1.2-1.2S30,37.4,30,38v8.1h2.3v-5.8c0-0.6,0.5-1.2,1.2-1.2s1.2,0.5,1.2,1.2v10.9c0,2.3-0.6,4.5-1.8,6.5
		H17.6C15.6,56.4,14.1,54.5,13.2,52.3z M18.2,60.1h14.3l1.9,11.6H16.2L18.2,60.1z M71.8,71.7h-4.6v-7h-2.3v7H60L56.7,59l0.5-1.6
		l3.7,2.2L62,54c5.8,2.3,9.7,7.9,9.7,14.4v3.3H71.8z"/>
	<path class="st0" d="M25.3,20.6c0-2.6-1.5-4.9-3.6-6.1c0.8-0.8,1.3-2,1.3-3.2c0-2.6-2.1-4.6-4.6-4.6s-4.6,2.1-4.6,4.6
		c0,1.2,0.5,2.4,1.3,3.2c-2.1,1.2-3.6,3.5-3.6,6.1v2.3h13.9L25.3,20.6L25.3,20.6z M16,11.3C16,10,17,9,18.3,9s2.3,1,2.3,2.3
		s-1,2.3-2.3,2.3C17.1,13.6,16,12.6,16,11.3z M13.7,20.6c0-2.6,2.1-4.6,4.6-4.6c2.6,0,4.6,2.1,4.6,4.6H13.7z"/>
	<path class="st0" d="M6.7,25.2h4.6v2.3H6.7V25.2z"/>
</g>
</svg>
