<?xml version="1.0" encoding="utf-8"?>
<!-- Generator: Adobe Illustrator 24.2.0, SVG Export Plug-In . SVG Version: 6.00 Build 0)  -->
<svg version="1.1" id="Capa_1" xmlns="http://www.w3.org/2000/svg" xmlns:xlink="http://www.w3.org/1999/xlink" x="0px" y="0px"
	 viewBox="0 0 75 75" style="enable-background:new 0 0 75 75;" xml:space="preserve">
<style type="text/css">
	.st0{fill:#FFFFFF;}
</style>
<g>
	<path class="st0" d="M65.2,54.2c0.6,0,1.1-0.5,1.1-1.1V4.7c0-1.8-1.4-3.2-3.2-3.2H15.7c-1.8,0-3.2,1.4-3.2,3.2v5.5
		c-2.2,0.4-3.8,2.3-3.8,4.6s1.6,4.2,3.8,4.6v2.1c-2.2,0.4-3.8,2.3-3.8,4.6s1.6,4.2,3.8,4.6v2.1c-2.2,0.4-3.8,2.3-3.8,4.6
		c0,2.3,1.6,4.2,3.8,4.6v2.1c-2.2,0.4-3.8,2.3-3.8,4.6s1.6,4.2,3.8,4.6v2.1c-2.2,0.4-3.8,2.3-3.8,4.6c0,2.3,1.6,4.2,3.8,4.6v5.5
		c0,1.7,1.4,3.2,3.2,3.2h47.4c1.7,0,3.2-1.4,3.2-3.2V57.4c0-0.6-0.5-1.1-1.1-1.1c-0.6,0-1.1,0.5-1.1,1.1v12.9c0,0.6-0.5,1.1-1.1,1.1
		H15.7c-0.6,0-1.1-0.5-1.1-1.1V57.9c0.8,0.4,1.4,1.3,1.4,2.3c0,0.6,0.5,1.1,1.1,1.1s1.1-0.5,1.1-1.1c0-2.2-1.5-4-3.5-4.5v-9.1
		c0.8,0.4,1.4,1.3,1.4,2.3c0,0.6,0.5,1.1,1.1,1.1s1.1-0.5,1.1-1.1c0-2.2-1.5-4-3.5-4.5v-9.1c0.8,0.4,1.4,1.3,1.4,2.3
		c0,0.6,0.5,1.1,1.1,1.1s1.1-0.5,1.1-1.1c0-2.2-1.5-4-3.5-4.5v-9.1c0.8,0.4,1.4,1.3,1.4,2.3c0,0.6,0.5,1.1,1.1,1.1s1.1-0.5,1.1-1.1
		c0-2.2-1.5-4-3.5-4.5v-9.1c0.8,0.4,1.4,1.3,1.4,2.3c0,0.6,0.5,1.1,1.1,1.1s1.1-0.5,1.1-1.1c0-2.2-1.5-4-3.5-4.5V4.7
		c0-0.6,0.5-1.1,1.1-1.1h47.4c0.6,0,1.1,0.5,1.1,1.1v48.5C64.2,53.8,64.6,54.2,65.2,54.2z M10.8,14.8c0-1.1,0.7-2.1,1.7-2.4v4.8
		C11.5,16.9,10.8,15.9,10.8,14.8z M10.8,26.2c0-1.1,0.7-2.1,1.7-2.4v4.8C11.5,28.2,10.8,27.3,10.8,26.2z M10.8,37.5
		c0-1.1,0.7-2.1,1.7-2.4v4.8C11.5,39.6,10.8,38.6,10.8,37.5z M10.8,48.8c0-1.1,0.7-2.1,1.7-2.4v4.8C11.5,50.9,10.8,49.9,10.8,48.8z
		 M10.8,60.2c0-1.1,0.7-2.1,1.7-2.4v4.8C11.5,62.2,10.8,61.3,10.8,60.2z"/>
	<path class="st0" d="M43.5,9.4c-0.6,0-1.1,0.5-1.1,1.1v4.6c0,0.6,0.5,1.1,1.1,1.1c0.6,0,1.1-0.5,1.1-1.1v-3.4
		c5.9,0.5,10.7,5.3,11.2,11.2H44.6v-3.5c0-0.6-0.5-1.1-1.1-1.1c-0.6,0-1.1,0.5-1.1,1.1v4.6c0,0.6,0.5,1.1,1.1,1.1h13.3
		c0.6,0,1.1-0.5,1.1-1.1C57.9,15.9,51.5,9.4,43.5,9.4L43.5,9.4z"/>
	<path class="st0" d="M39.2,14.7c-7.4,0-13.3,6-13.3,13.3c0,0.6,0.5,1.1,1.1,1.1s1.1-0.5,1.1-1.1c0-5.8,4.5-10.7,10.2-11.2v11.2
		c0,0.1,0,0.3,0.1,0.4l4,10.5c-0.9,0.3-1.9,0.4-3,0.4c-4.7,0-9-3-10.6-7.4c-0.2-0.5-0.8-0.8-1.4-0.6c-0.5,0.2-0.8,0.8-0.6,1.4
		c1.9,5.3,6.9,8.8,12.6,8.8c1.6,0,3.2-0.3,4.7-0.8c0,0,0,0,0.1,0c0,0,0,0,0.1,0c5-1.9,8.6-6.8,8.6-12.5c0-0.6-0.5-1.1-1.1-1.1H40.3
		V15.8C40.2,15.2,39.8,14.7,39.2,14.7L39.2,14.7z M44.1,38.1l-3.4-9h9.7C50,33.1,47.5,36.5,44.1,38.1L44.1,38.1z"/>
	<path class="st0" d="M56.9,47.8H25.4c-0.6,0-1.1,0.5-1.1,1.1s0.5,1.1,1.1,1.1h31.5c0.6,0,1.1-0.5,1.1-1.1S57.5,47.8,56.9,47.8z"/>
	<path class="st0" d="M57.9,55.3c0-0.6-0.5-1.1-1.1-1.1H25.4c-0.6,0-1.1,0.5-1.1,1.1c0,0.6,0.5,1.1,1.1,1.1h31.5
		C57.5,56.4,57.9,55.9,57.9,55.3z"/>
	<path class="st0" d="M25.4,60.7c-0.6,0-1.1,0.5-1.1,1.1s0.5,1.1,1.1,1.1h22.4c0.6,0,1.1-0.5,1.1-1.1s-0.5-1.1-1.1-1.1H25.4z"/>
</g>
</svg>
