<?xml version="1.0" encoding="utf-8"?>
<!-- Generator: Adobe Illustrator 24.2.0, SVG Export Plug-In . SVG Version: 6.00 Build 0)  -->
<svg version="1.1" id="Layer_1" xmlns="http://www.w3.org/2000/svg" xmlns:xlink="http://www.w3.org/1999/xlink" x="0px" y="0px"
	 viewBox="0 0 75 75" style="enable-background:new 0 0 75 75;" xml:space="preserve">
<style type="text/css">
	.st0{fill:#FFFFFF;}
</style>
<path class="st0" d="M65.8,38.2H44.5c-0.8,0-1.4,0.6-1.4,1.4s0.6,1.4,1.4,1.4h21.3c0.8,0,1.4-0.6,1.4-1.4S66.6,38.2,65.8,38.2z"/>
<path class="st0" d="M65.8,54.5H44.5c-0.8,0-1.4,0.6-1.4,1.4c0,0.8,0.6,1.4,1.4,1.4h21.3c0.8,0,1.4-0.6,1.4-1.4
	C67.2,55.2,66.6,54.5,65.8,54.5z"/>
<path class="st0" d="M22.3,57.4h16.3c0.8,0,1.4-0.6,1.4-1.4V39.6c0-0.8-0.6-1.4-1.4-1.4H22.3c-0.8,0-1.4,0.6-1.4,1.4v16.3
	C20.9,56.7,21.6,57.4,22.3,57.4z M23.8,41h13.5v13.5H23.8V41z"/>
<path class="st0" d="M72.1,5.9H12.8c-0.8,0-1.4,0.6-1.4,1.4v8.1H2.9c-0.8,0-1.4,0.6-1.4,1.4v46c0,3.5,2.9,6.4,6.4,6.4h59.3
	c3.5,0,6.4-2.9,6.4-6.4V7.3C73.5,6.5,72.9,5.9,72.1,5.9z M11.4,32.4H9.3v-4.7h2.1L11.4,32.4L11.4,32.4z M4.3,62.8V18.2h7.1v6.7H7.9
	c-0.8,0-1.4,0.6-1.4,1.4v7.5c0,0.8,0.6,1.4,1.4,1.4h3.6v5.3H7.9c-0.8,0-1.4,0.6-1.4,1.4c0,0.8,0.6,1.4,1.4,1.4h3.6v5.3H7.9
	c-0.8,0-1.4,0.6-1.4,1.4c0,0.8,0.6,1.4,1.4,1.4h3.6v5.3H7.9c-0.8,0-1.4,0.6-1.4,1.4s0.6,1.4,1.4,1.4h3.6v3.1c0,2-1.6,3.6-3.6,3.6
	C5.9,66.3,4.3,64.7,4.3,62.8z M70.7,62.8c0,2-1.6,3.6-3.6,3.6h-54c0.7-1,1.1-2.3,1.1-3.6V8.7h56.4V62.8z"/>
<path class="st0" d="M27.8,24h29.4c0.8,0,1.4-0.6,1.4-1.4v-7.5c0-0.8-0.6-1.4-1.4-1.4H27.8c-0.8,0-1.4,0.6-1.4,1.4v7.5
	C26.4,23.4,27,24,27.8,24z M29.2,16.5h26.6v4.7H29.2V16.5z"/>
<path class="st0" d="M22.3,32.5h5.5c0.8,0,1.4-0.6,1.4-1.4c0-0.8-0.6-1.4-1.4-1.4h-5.5c-0.8,0-1.4,0.6-1.4,1.4
	C20.9,31.9,21.6,32.5,22.3,32.5z"/>
<path class="st0" d="M34.6,30.3c-0.3-0.5-0.9-0.7-1.5-0.6c-0.6,0.1-1,0.6-1.1,1.2s0.2,1.2,0.8,1.4c0.5,0.3,1.2,0.2,1.6-0.2
	C34.9,31.7,35,30.9,34.6,30.3z"/>
<path class="st0" d="M37.7,31.1c0,0.8,0.6,1.4,1.4,1.4h26.7c0.8,0,1.4-0.6,1.4-1.4c0-0.8-0.6-1.4-1.4-1.4H39.1
	C38.3,29.7,37.7,30.3,37.7,31.1z"/>
<path class="st0" d="M65.2,49.1c0.5,0.2,1.2,0.1,1.6-0.4c0.4-0.4,0.5-1.1,0.2-1.6s-0.9-0.8-1.5-0.7c-0.6,0.1-1.1,0.6-1.2,1.2
	C64.3,48.2,64.7,48.8,65.2,49.1z"/>
<path class="st0" d="M44.5,49.2h15.7c0.8,0,1.4-0.6,1.4-1.4s-0.6-1.4-1.4-1.4H44.5c-0.8,0-1.4,0.6-1.4,1.4S43.7,49.2,44.5,49.2z"/>
</svg>
