<?xml version="1.0" encoding="utf-8"?>
<!-- Generator: Adobe Illustrator 24.2.0, SVG Export Plug-In . SVG Version: 6.00 Build 0)  -->
<svg version="1.1" id="Capa_1" xmlns="http://www.w3.org/2000/svg" xmlns:xlink="http://www.w3.org/1999/xlink" x="0px" y="0px"
	 viewBox="0 0 75 75" style="enable-background:new 0 0 75 75;" xml:space="preserve">
<style type="text/css">
	.st0{fill:#FFFFFF;}
</style>
<path class="st0" d="M26.8,9.7c-0.5-0.4-1.3-0.3-1.7,0.2c-3.2,3.9-4.8,8.7-4.8,13.8c0,12.2,9.9,22.1,22.1,22.1s22.1-9.9,22.1-22.1
	S54.6,1.5,42.4,1.5C37.6,1.5,33,3,29.1,5.9c-0.5,0.4-0.7,1.2-0.2,1.7s1.2,0.7,1.7,0.2C34,5.3,38.1,4,42.4,4C53.2,4,62,12.8,62,23.6
	c0,5.7-2.4,10.8-6.3,14.4v-1.9c0-1.5-0.8-2.8-2.1-3.6l-0.5-0.3c-0.6-0.3-1.3-0.1-1.7,0.4c-0.3,0.6-0.1,1.3,0.4,1.7l0.5,0.3
	c0.5,0.3,0.8,0.9,0.8,1.4v3.8c-1,0.6-2,1.2-3,1.7v-1.3c0-0.7-0.6-1.2-1.2-1.2c-0.7,0-1.2,0.6-1.2,1.2v2.2c-1.7,0.5-3.5,0.8-5.4,0.8
	c-1.9,0-3.7-0.3-5.5-0.8v-2.2c0-0.7-0.6-1.2-1.2-1.2s-1.2,0.6-1.2,1.2v1.3c-1-0.4-1.9-1-2.8-1.5v-3.9c0-0.6,0.3-1.2,0.8-1.4l6.1-3.5
	c0.7,1.4,2.1,2.4,3.8,2.4c1.7,0,3.1-1,3.8-2.4l1.1,0.7c0.2,0.1,0.4,0.2,0.6,0.2c0.4,0,0.8-0.2,1.1-0.6c0.3-0.6,0.1-1.3-0.4-1.7
	l-2-1.1v-1.3c2.4-1.4,4-4.1,4-7V12c0-2.2-1.8-4.1-4.1-4.1h-7.7l-2.3-0.8C36,7,35.4,7.1,34.9,7.4c-0.5,0.3-0.7,0.9-0.7,1.4v11.3
	c0,3,1.6,5.6,4,7v1.4l-6.9,4c-1.3,0.7-2.1,2.1-2.1,3.6v2c-3.9-3.6-6.4-8.8-6.4-14.5c0-4.5,1.5-8.7,4.3-12.2
	C27.5,10.9,27.4,10.1,26.8,9.7L26.8,9.7z M38.2,10.3c0.1,0,0.2,0.1,0.4,0.1h7.9c0.9,0,1.6,0.7,1.6,1.6v2.5H36.7V9.8L38.2,10.3z
	 M36.7,16.9h11.5v3.2c0,3.2-2.6,5.7-5.7,5.7c-3.2,0-5.7-2.6-5.7-5.7L36.7,16.9L36.7,16.9z M42.4,28.3c0.6,0,1.2-0.1,1.7-0.2v1.1
	c0,1-0.8,1.8-1.8,1.8c-1,0-1.8-0.8-1.8-1.8v-1.1C41.2,28.2,41.8,28.3,42.4,28.3z"/>
<path class="st0" d="M67.6,51.3c-0.7-1.3-1.8-2.3-3.2-2.8c-1.4-0.5-2.9-0.4-4.3,0.3l-9.9,5c-0.8-2.1-2.8-3.6-5.2-3.6h-6.6
	c-2.6-2.5-6.4-3.9-10.3-3.9c-2.5,0-5.3,1-8.2,2.2v-2.3H8.7v27.4h11.2V68l23.3,4.4l22-13.6c1.3-0.7,2.3-1.8,2.7-3.2
	C68.4,54.2,68.3,52.7,67.6,51.3L67.6,51.3z M16.4,70h-4.2V49.6h4.2V70z M64.6,54.5c-0.2,0.5-0.5,1-1,1.2l-0.1,0l-21,13l-22.6-4.3
	V52.2c0.2-0.1,0.4-0.1,0.5-0.2c3-1.2,5.6-2.2,7.7-2.2c3.3,0,6.3,1.2,8.3,3.4l0.5,0.6H45c1.2,0,2.1,0.9,2.1,2.1
	c0,1.2-0.9,2.1-2.1,2.1H29.9v3.5H45c2.4,0,4.4-1.5,5.2-3.7L61.6,52c0.5-0.2,1.1-0.3,1.6-0.1c0.5,0.2,1,0.5,1.2,1.1
	C64.7,53.4,64.8,54,64.6,54.5L64.6,54.5z"/>
</svg>
