<?xml version="1.0" encoding="utf-8"?>
<!-- Generator: Adobe Illustrator 24.2.0, SVG Export Plug-In . SVG Version: 6.00 Build 0)  -->
<svg version="1.1" id="Capa_1" xmlns="http://www.w3.org/2000/svg" xmlns:xlink="http://www.w3.org/1999/xlink" x="0px" y="0px"
	 viewBox="0 0 75 75" style="enable-background:new 0 0 75 75;" xml:space="preserve">
<style type="text/css">
	.st0{fill:#FFFFFF;}
</style>
<g id="XMLID_316_">
	<g id="XMLID_335_">
		<path id="XMLID_350_" class="st0" d="M26.4,21.3c1,0,1.9-0.8,1.9-1.9v-3.2c0-1-0.8-1.9-1.9-1.9H9.8c-4.5,0-8.3,3.7-8.3,8.3v1.4
			c0,0.3,0.2,0.6,0.5,0.8c0.1,0.1,0.3,0.1,0.4,0.1c0.2,0,0.4-0.1,0.5-0.2c1.2-0.8,2.6-1.2,4.1-1.2h0.4v3.3C6,30.4,5,34.2,4.6,38.1
			c0,0.5,0.3,1,0.8,1c0,0,0.1,0,0.1,0c0.5,0,0.9-0.4,0.9-0.8c0.4-3.6,1.2-7.1,2.5-10.5h8v1.6c0,3.4,2.2,6.4,5.4,7.6
			c2.5,0.9,4.1,3.2,4.1,5.8v13.1c0,1.9-1.6,3.5-3.5,3.5H9.8c-1.9,0-3.5-1.6-3.5-3.5v-9.5c0-0.5-0.4-0.9-0.9-0.9S4.4,46,4.4,46.5v9.5
			c0,2.9,2.4,5.3,5.3,5.3H23c2.9,0,5.3-2.4,5.3-5.3V42.8c0-3.4-2.2-6.4-5.4-7.6c-2.5-0.9-4.1-3.2-4.1-5.8V27c1.4,1.7,3.4,2.8,5.6,3
			c0,0,0.1,0,0.1,0c0.4,0,0.7-0.2,0.8-0.5c0.2-0.4,0.1-0.8-0.2-1c-1.2-1.2-1.9-2.8-1.9-4.6v-2.6L26.4,21.3L26.4,21.3z M26.4,16.2
			v3.2c0,0,0,0.1-0.1,0.1h-2.6v-3.3L26.4,16.2C26.4,16.1,26.4,16.2,26.4,16.2z M3.3,22.4c0.1-3.5,2.9-6.3,6.4-6.3h12.2v3.3h-1.6
			c-0.2,0-0.4,0.1-0.6,0.2l-2.3,2H7C5.7,21.6,4.5,21.9,3.3,22.4L3.3,22.4z M16.9,23.5V26H9.2v-2.5H16.9z M18.8,22.9l1.9-1.6h0.6v2.6
			c0,1.3,0.3,2.5,0.8,3.6C20.4,26.6,19.1,24.9,18.8,22.9z"/>
		<path id="XMLID_1371_" class="st0" d="M18.4,41.5h-4c-0.5,0-0.9,0.4-0.9,0.9v2.2h-2.2c-0.5,0-0.9,0.4-0.9,0.9v4
			c0,0.5,0.4,0.9,0.9,0.9h2.2v2.2c0,0.5,0.4,0.9,0.9,0.9h4c0.5,0,0.9-0.4,0.9-0.9v-2.2h2.2c0.5,0,0.9-0.4,0.9-0.9v-4
			c0-0.5-0.4-0.9-0.9-0.9h-2.2v-2.2C19.3,41.9,18.9,41.5,18.4,41.5z M20.6,46.4v2.2h-2.2c-0.5,0-0.9,0.4-0.9,0.9v2.2h-2.2v-2.2
			c0-0.5-0.4-0.9-0.9-0.9h-2.2v-2.2h2.2c0.5,0,0.9-0.4,0.9-0.9v-2.2h2.2v2.2c0,0.5,0.4,0.9,0.9,0.9H20.6z"/>
		<path id="XMLID_1376_" class="st0" d="M5.4,43.3c0.2,0,0.5-0.1,0.6-0.3c0.2-0.2,0.3-0.4,0.3-0.6S6.2,41.9,6,41.7
			c-0.2-0.2-0.4-0.3-0.6-0.3s-0.5,0.1-0.6,0.3c-0.2,0.2-0.3,0.4-0.3,0.6s0.1,0.5,0.3,0.6C4.9,43.2,5.2,43.3,5.4,43.3z"/>
	</g>
</g>
<path class="st0" d="M60.4,13.8h-17c-0.4,0-0.8,0.3-0.8,0.8v2.3h-0.8c-0.4,0-0.8,0.3-0.8,0.8v2.3H31c-0.4,0-0.8,0.3-0.8,0.8v38.6
	c0,0.4,0.3,0.8,0.8,0.8l41.7,0c0.4,0,0.8-0.3,0.8-0.8V20.7c0-0.4-0.3-0.8-0.8-0.8h-10v-2.3c0-0.4-0.3-0.8-0.8-0.8h-0.8v-2.3
	C61.1,14.1,60.8,13.8,60.4,13.8z M31.8,21.5h9.3v37.1h-9.3L31.8,21.5L31.8,21.5z M72,21.5v37.1h-9.3V21.5H72z M44.2,15.3h15.4v1.5
	H44.2V15.3z M53.4,58.6h-3.1v-6.2h3.1V58.6z M48.8,58.6h-1.5v-6.2h1.5V58.6z M55,58.6v-6.2h1.5v6.2H55z M61.1,58.6h-3.1v-6.9
	c0-0.4-0.3-0.8-0.8-0.8H46.5c-0.4,0-0.8,0.3-0.8,0.8v6.9h-3.1V18.4h18.5V58.6z"/>
<path class="st0" d="M46.1,30.2h4.6c0.4,0,0.8-0.3,0.8-0.8v-4.6c0-0.4-0.3-0.8-0.8-0.8h-4.6c-0.4,0-0.8,0.3-0.8,0.8v4.6
	C45.3,29.8,45.6,30.2,46.1,30.2z M46.8,25.6h3.1v3.1h-3.1V25.6z"/>
<path class="st0" d="M55.3,30.2H60c0.4,0,0.8-0.3,0.8-0.8v-4.6c0-0.4-0.3-0.8-0.8-0.8h-4.6c-0.4,0-0.8,0.3-0.8,0.8v4.6
	C54.6,29.8,54.9,30.2,55.3,30.2z M56.1,25.6h3.1v3.1h-3.1V25.6z"/>
<path class="st0" d="M46.1,39.5h4.6c0.4,0,0.8-0.3,0.8-0.8v-4.6c0-0.4-0.3-0.8-0.8-0.8h-4.6c-0.4,0-0.8,0.3-0.8,0.8v4.6
	C45.3,39.1,45.6,39.5,46.1,39.5z M46.8,34.8h3.1v3.1h-3.1V34.8z"/>
<path class="st0" d="M55.3,39.5H60c0.4,0,0.8-0.3,0.8-0.8v-4.6c0-0.4-0.3-0.8-0.8-0.8h-4.6c-0.4,0-0.8,0.3-0.8,0.8v4.6
	C54.6,39.1,54.9,39.5,55.3,39.5z M56.1,34.8h3.1v3.1h-3.1V34.8z"/>
<path class="st0" d="M46.1,48.7h4.6c0.4,0,0.8-0.3,0.8-0.8v-4.6c0-0.4-0.3-0.8-0.8-0.8h-4.6c-0.4,0-0.8,0.3-0.8,0.8V48
	C45.3,48.4,45.6,48.7,46.1,48.7z M46.8,44.1h3.1v3.1h-3.1V44.1z"/>
<path class="st0" d="M39.9,24h-4.6c-0.4,0-0.8,0.3-0.8,0.8v4.6c0,0.4,0.3,0.8,0.8,0.8h4.6c0.4,0,0.8-0.3,0.8-0.8v-4.6
	C40.7,24.4,40.3,24,39.9,24z M39.1,28.7H36v-3.1h3.1V28.7z"/>
<path class="st0" d="M39.9,33.3h-4.6c-0.4,0-0.8,0.3-0.8,0.8v4.6c0,0.4,0.3,0.8,0.8,0.8h4.6c0.4,0,0.8-0.3,0.8-0.8v-4.6
	C40.7,33.6,40.3,33.3,39.9,33.3z M39.1,37.9H36v-3.1h3.1V37.9z"/>
<path class="st0" d="M39.9,42.6h-4.6c-0.4,0-0.8,0.3-0.8,0.8V48c0,0.4,0.3,0.8,0.8,0.8h4.6c0.4,0,0.8-0.3,0.8-0.8v-4.6
	C40.7,42.9,40.3,42.6,39.9,42.6z M39.1,47.2H36v-3.1h3.1V47.2z"/>
<path class="st0" d="M39.9,51.8h-4.6c-0.4,0-0.8,0.3-0.8,0.8v4.6c0,0.4,0.3,0.8,0.8,0.8h4.6c0.4,0,0.8-0.3,0.8-0.8v-4.6
	C40.7,52.2,40.3,51.8,39.9,51.8z M39.1,56.5H36v-3.1h3.1V56.5z"/>
<path class="st0" d="M55.3,48.7H60c0.4,0,0.8-0.3,0.8-0.8v-4.6c0-0.4-0.3-0.8-0.8-0.8h-4.6c-0.4,0-0.8,0.3-0.8,0.8V48
	C54.6,48.4,54.9,48.7,55.3,48.7z M56.1,44.1h3.1v3.1h-3.1V44.1z"/>
<path class="st0" d="M66.2,30.2h4.6c0.4,0,0.8-0.3,0.8-0.8v-4.6c0-0.4-0.3-0.8-0.8-0.8h-4.6c-0.4,0-0.8,0.3-0.8,0.8v4.6
	C65.4,29.8,65.7,30.2,66.2,30.2z M66.9,25.6H70v3.1h-3.1V25.6z"/>
<path class="st0" d="M66.2,39.5h4.6c0.4,0,0.8-0.3,0.8-0.8v-4.6c0-0.4-0.3-0.8-0.8-0.8h-4.6c-0.4,0-0.8,0.3-0.8,0.8v4.6
	C65.4,39.1,65.7,39.5,66.2,39.5z M66.9,34.8H70v3.1h-3.1V34.8z"/>
<path class="st0" d="M66.2,48.7h4.6c0.4,0,0.8-0.3,0.8-0.8v-4.6c0-0.4-0.3-0.8-0.8-0.8h-4.6c-0.4,0-0.8,0.3-0.8,0.8V48
	C65.4,48.4,65.7,48.7,66.2,48.7z M66.9,44.1H70v3.1h-3.1V44.1z"/>
<path class="st0" d="M66.2,58h4.6c0.4,0,0.8-0.3,0.8-0.8v-4.6c0-0.4-0.3-0.8-0.8-0.8h-4.6c-0.4,0-0.8,0.3-0.8,0.8v4.6
	C65.4,57.7,65.7,58,66.2,58z M66.9,53.4H70v3.1h-3.1V53.4z"/>
</svg>
