<?xml version="1.0" encoding="utf-8"?>
<!-- Generator: Adobe Illustrator 24.2.0, SVG Export Plug-In . SVG Version: 6.00 Build 0)  -->
<svg version="1.1" id="Capa_1" xmlns="http://www.w3.org/2000/svg" xmlns:xlink="http://www.w3.org/1999/xlink" x="0px" y="0px"
	 viewBox="0 0 75 75" style="enable-background:new 0 0 75 75;" xml:space="preserve">
<style type="text/css">
	.st0{fill:#FFFFFF;}
</style>
<g>
	<g>
		<g>
			<path class="st0" d="M71.6,30.9h-9c-0.8,0-1.4,0.6-1.4,1.4v7.1c0,0.8,0.6,1.4,1.4,1.4s1.4-0.6,1.4-1.4v-5.7h6.2v37h-3.1H64V49.9
				c0-0.8-0.6-1.4-1.4-1.4s-1.4,0.6-1.4,1.4v20.8h-2.8V41.6c0-0.8-0.6-1.4-1.4-1.4h-9c-0.8,0-1.4,0.6-1.4,1.4v29.1h-2.8V51.4
				c0-0.8-0.6-1.4-1.4-1.4h-9c-0.8,0-1.4,0.6-1.4,1.4v19.3h-2.8V59.5c0-0.8-0.6-1.4-1.4-1.4h-9c-0.8,0-1.4,0.6-1.4,1.4v11.2H5.2
				c-0.8,0-1.4-0.6-1.4-1.4V5.7c0-0.8,0.6-1.4,1.4-1.4h36.3v9.3c0,2.3,1.9,4.2,4.2,4.2H55v17.3c0,0.8,0.6,1.4,1.4,1.4
				c0.8,0,1.4-0.6,1.4-1.4V16.4c0-0.4-0.1-0.7-0.4-1L43.9,1.9c-0.3-0.3-0.6-0.4-1-0.4H5.2C2.9,1.5,1,3.4,1,5.7v63.6
				c0,2.3,1.9,4.2,4.2,4.2h66.4c0.8,0,1.4-0.6,1.4-1.4V32.3C73,31.5,72.4,30.9,71.6,30.9z M44.3,6.3L53,15h-7.3
				c-0.8,0-1.4-0.6-1.4-1.4V6.3z M26.3,70.7h-6.2v-9.8h6.2V70.7z M40.9,70.7h-6.2V52.8h6.2V70.7z M55.6,70.7h-6.2V43h6.2V70.7z"/>
		</g>
	</g>
	<g>
		<g>
			<path class="st0" d="M63.6,43.4c-0.3-0.3-0.6-0.4-1-0.4s-0.7,0.1-1,0.4c-0.3,0.3-0.4,0.6-0.4,1c0,0.4,0.2,0.7,0.4,1
				c0.3,0.3,0.6,0.4,1,0.4s0.7-0.2,1-0.4c0.3-0.3,0.4-0.6,0.4-1C64,44,63.8,43.6,63.6,43.4z"/>
		</g>
	</g>
	<g>
		<g>
			<path class="st0" d="M21.5,9.2c-0.8,0-1.4,0.6-1.4,1.4v2.5C13.6,13.8,8.5,19.3,8.5,26c0,7.1,5.8,12.9,12.9,12.9
				c6.7,0,12.2-5.1,12.9-11.5h2.5c0.8,0,1.4-0.6,1.4-1.4C38.3,16.7,30.7,9.2,21.5,9.2z M21.5,36.1c-5.6,0-10.1-4.5-10.1-10.1
				c0-5.1,3.8-9.3,8.7-10v10c0,0.8,0.6,1.4,1.4,1.4h10C30.8,32.3,26.6,36.1,21.5,36.1z M22.9,24.6L22.9,24.6V12.1
				c6.6,0.7,11.8,5.9,12.5,12.5H22.9z"/>
		</g>
	</g>
	<g>
		<g>
			<path class="st0" d="M36.9,42.9H10c-0.8,0-1.4,0.6-1.4,1.4s0.6,1.4,1.4,1.4h26.9c0.8,0,1.4-0.6,1.4-1.4S37.6,42.9,36.9,42.9z"/>
		</g>
	</g>
	<g>
		<g>
			<path class="st0" d="M19,49.7h-9c-0.8,0-1.4,0.6-1.4,1.4s0.6,1.4,1.4,1.4h9c0.8,0,1.4-0.6,1.4-1.4S19.8,49.7,19,49.7z"/>
		</g>
	</g>
	<g>
		<g>
			<path class="st0" d="M27,50.1c-0.3-0.3-0.6-0.4-1-0.4c-0.4,0-0.7,0.2-1,0.4c-0.3,0.3-0.4,0.6-0.4,1s0.1,0.7,0.4,1
				c0.3,0.3,0.6,0.4,1,0.4c0.4,0,0.7-0.2,1-0.4c0.3-0.3,0.4-0.6,0.4-1S27.3,50.3,27,50.1z"/>
		</g>
	</g>
</g>
</svg>
