<?xml version="1.0" encoding="utf-8"?>
<!-- Generator: Adobe Illustrator 24.2.0, SVG Export Plug-In . SVG Version: 6.00 Build 0)  -->
<svg version="1.1" id="Layer_1" xmlns="http://www.w3.org/2000/svg" xmlns:xlink="http://www.w3.org/1999/xlink" x="0px" y="0px"
	 viewBox="0 0 75 75" style="enable-background:new 0 0 75 75;" xml:space="preserve">
<style type="text/css">
	.st0{fill:#FFFFFF;}
</style>
<path class="st0" d="M13.3,58.5c-1,0-2,0.3-2.9,0.7c-4.6-5.9-7.1-13.1-7.1-20.6c0-18.5,15-33.5,33.5-33.5c2.2,0,4.5,0.2,6.7,0.7
	c0.8,0.2,1.5-0.3,1.7-1.1c0.2-0.8-0.3-1.5-1.1-1.7c-2.4-0.5-4.8-0.7-7.2-0.7c-9.7,0-18.8,3.8-25.7,10.7S0.6,28.9,0.6,38.6
	c0,8.2,2.8,16.2,7.8,22.5c-0.7,1-1,2.1-1,3.3c0,1.6,0.6,3.1,1.7,4.2s2.6,1.7,4.2,1.7s3.1-0.6,4.2-1.7s1.7-2.6,1.7-4.2
	c0-1.6-0.6-3.1-1.7-4.2C16.4,59.1,14.9,58.5,13.3,58.5z M15.6,66.7c-0.6,0.6-1.4,0.9-2.2,0.9s-1.6-0.3-2.2-0.9
	c-0.6-0.6-0.9-1.4-0.9-2.2c0-0.8,0.3-1.6,0.9-2.2c0.6-0.6,1.4-0.9,2.2-0.9s1.6,0.3,2.2,0.9c0.6,0.6,0.9,1.4,0.9,2.2
	C16.5,65.3,16.1,66.1,15.6,66.7z"/>
<path class="st0" d="M65.5,16.1c1.5-2.3,1.3-5.5-0.8-7.5c-1.1-1.1-2.6-1.7-4.2-1.7c-1.6,0-3.1,0.6-4.2,1.7c-1.1,1.1-1.7,2.6-1.7,4.2
	s0.6,3.1,1.7,4.2c1.1,1.1,2.6,1.7,4.2,1.7c1,0,2-0.3,2.9-0.7c4.6,5.9,7.1,13.2,7.1,20.6c0,18.5-15,33.5-33.5,33.5
	c-2.2,0-4.4-0.2-6.6-0.7c-0.8-0.2-1.5,0.3-1.7,1.1c-0.2,0.8,0.3,1.5,1.1,1.7c2.3,0.5,4.8,0.7,7.2,0.7c9.7,0,18.8-3.8,25.7-10.7
	s10.7-16,10.7-25.7C73.3,30.5,70.5,22.5,65.5,16.1z M58.3,15c-0.6-0.6-0.9-1.4-0.9-2.2s0.3-1.6,0.9-2.2c0.6-0.6,1.4-0.9,2.2-0.9
	s1.6,0.3,2.2,0.9c1.2,1.2,1.2,3.2,0,4.4c-0.6,0.6-1.4,0.9-2.2,0.9C59.7,15.9,58.9,15.6,58.3,15z"/>
<path class="st0" d="M31,63.1c0,0.8,0.6,1.4,1.4,1.4h8.9c0.8,0,1.4-0.6,1.4-1.4v-2.8c1.9-0.5,3.7-1.2,5.3-2.2L50,60
	c0.3,0.3,0.6,0.4,1,0.4c0.4,0,0.7-0.2,1-0.4l6.3-6.3c0.6-0.6,0.6-1.4,0-2l-1.9-1.9c1-1.7,1.7-3.5,2.2-5.3h2.7c0.8,0,1.4-0.6,1.4-1.4
	v-8.9c0-0.8-0.6-1.4-1.4-1.4h-2.7c-0.5-1.9-1.2-3.7-2.2-5.3l1.9-1.9c0.3-0.3,0.4-0.6,0.4-1c0-0.4-0.2-0.7-0.4-1L52,17.2
	c-0.6-0.6-1.4-0.6-2,0l-1.9,1.9c-1.7-1-3.5-1.7-5.3-2.2v-2.7c0-0.8-0.6-1.4-1.4-1.4h-8.9c-0.8,0-1.4,0.6-1.4,1.4v2.7
	c-1.9,0.5-3.7,1.2-5.3,2.2l-1.9-1.9c-0.6-0.6-1.4-0.6-2,0l-6.3,6.3c-0.3,0.3-0.4,0.6-0.4,1s0.2,0.7,0.4,1l1.9,1.9
	c-1,1.7-1.7,3.5-2.2,5.3h-2.8c-0.8,0-1.4,0.6-1.4,1.4v8.9c0,0.4,0.2,0.7,0.4,1c0.3,0.3,0.6,0.4,1,0.4h2.7c0.5,1.9,1.2,3.7,2.2,5.3
	l-1.9,1.9c-0.6,0.6-0.6,1.4,0,2l6.3,6.3c0.3,0.3,0.6,0.4,1,0.4l0,0c0.4,0,0.7-0.2,1-0.4l1.9-1.9c1.7,1,3.5,1.7,5.3,2.2L31,63.1
	L31,63.1z M26.3,55.1c-0.6-0.4-1.3-0.3-1.8,0.2L22.8,57l-4.3-4.3l1.7-1.7c0.5-0.5,0.6-1.2,0.2-1.8c-1.3-2-2.2-4.2-2.7-6.5
	c-0.1-0.7-0.7-1.1-1.4-1.1h-2.4v-6h2.4c0.7,0,1.2-0.5,1.4-1.1c0.5-2.3,1.4-4.5,2.7-6.5c0.4-0.6,0.3-1.3-0.2-1.8l-1.7-1.7l4.3-4.3
	l1.7,1.7c0.5,0.5,1.2,0.6,1.8,0.2c2-1.3,4.2-2.2,6.5-2.7c0.7-0.1,1.1-0.7,1.1-1.4v-2.4h6v2.4c0,0.7,0.5,1.2,1.1,1.4
	c2.3,0.5,4.5,1.4,6.5,2.7c0.6,0.4,1.3,0.3,1.8-0.2l1.7-1.7l4.3,4.3l-1.7,1.7c-0.5,0.5-0.6,1.2-0.2,1.8c1.3,2,2.2,4.2,2.7,6.5
	c0.1,0.7,0.7,1.1,1.4,1.1h2.4v6h-2.4c-0.7,0-1.2,0.5-1.4,1.1c-0.5,2.3-1.4,4.5-2.7,6.5c-0.4,0.6-0.3,1.3,0.2,1.8l1.7,1.7L51,57
	l-1.7-1.7c-0.5-0.5-1.2-0.6-1.8-0.2c-2,1.3-4.2,2.2-6.5,2.7c-0.7,0.1-1.1,0.7-1.1,1.4v2.4h-6v-2.5c0-0.7-0.5-1.2-1.1-1.4
	C30.5,57.3,28.3,56.4,26.3,55.1z"/>
<path class="st0" d="M48.6,38.6c0-6.5-5.3-11.7-11.7-11.7s-11.7,5.3-11.7,11.7s5.3,11.7,11.7,11.7S48.6,45.1,48.6,38.6z M28,38.6
	c0-4.9,4-8.9,8.9-8.9s8.9,4,8.9,8.9s-4,8.9-8.9,8.9S28,43.5,28,38.6z"/>
<path class="st0" d="M50,7.6c0.4,0,0.7-0.2,1-0.4c0.3-0.3,0.4-0.6,0.4-1c0-0.4-0.2-0.7-0.4-1c-0.3-0.3-0.6-0.4-1-0.4
	c-0.4,0-0.7,0.2-1,0.4c-0.3,0.3-0.4,0.6-0.4,1c0,0.4,0.2,0.7,0.4,1C49.3,7.5,49.6,7.6,50,7.6z"/>
<path class="st0" d="M23.9,69.7c-0.4,0-0.7,0.2-1,0.4c-0.3,0.3-0.4,0.6-0.4,1c0,0.4,0.2,0.7,0.4,1c0.3,0.3,0.6,0.4,1,0.4
	c0.4,0,0.7-0.2,1-0.4c0.3-0.3,0.4-0.6,0.4-1c0-0.4-0.2-0.7-0.4-1C24.7,69.8,24.3,69.7,23.9,69.7z"/>
</svg>
