<?xml version="1.0" encoding="utf-8"?>
<!-- Generator: Adobe Illustrator 24.2.0, SVG Export Plug-In . SVG Version: 6.00 Build 0)  -->
<svg version="1.1" id="Layer_1" xmlns="http://www.w3.org/2000/svg" xmlns:xlink="http://www.w3.org/1999/xlink" x="0px" y="0px"
	 viewBox="0 0 75 74.6" style="enable-background:new 0 0 75 74.6;" xml:space="preserve">
<style type="text/css">
	.st0{fill:#FFFFFF;}
	.st1{fill:none;stroke:#FFFFFF;stroke-width:4;stroke-miterlimit:10;}
</style>
<g id="Layer_2_1_">
	<g id="Capa_1">
		<path class="st0" d="M26.7,40.4l5.2-2.7l-5.2-2.7l3.2-5L24,30.2l0.2-5.9l-5,3.2l-2.7-5.2l-2.7,5.2l-5-3.2L9,30.2l-5.9-0.2l3.2,5
			L1,37.7l5.2,2.7l-3.2,5L9,45.2l-0.2,5.9l5-3.2l2.7,5.2l2.7-5.2l5,3.2L24,45.2l5.9,0.2L26.7,40.4z M16.5,45.4
			c-4.3,0-7.7-3.5-7.7-7.7s3.5-7.7,7.7-7.7s7.7,3.5,7.7,7.7l0,0C24.2,41.9,20.8,45.4,16.5,45.4z"/>
		<path class="st0" d="M65.8,68.3c-1.4,1-2.5,1.7-4.8,1.7c-2.3,0-3.4-0.7-4.8-1.7c-1.6-1.1-3.5-2.5-7.2-2.5c-3.7,0-5.6,1.4-7.2,2.5
			c-1.4,1-2.5,1.7-4.8,1.7c-2.3,0-3.4-0.7-4.8-1.7c-1.6-1.1-3.5-2.5-7.2-2.5s-5.6,1.4-7.2,2.5c-1.4,1-2.5,1.7-4.8,1.7
			s-3.4-0.7-4.8-1.7c-1.6-1.1-3.6-2.5-7.2-2.5V70c2.3,0,3.4,0.7,4.8,1.7c1.6,1.1,3.5,2.5,7.2,2.5s5.6-1.4,7.2-2.5
			c1.4-1,2.4-1.7,4.8-1.7s3.4,0.7,4.8,1.7c1.6,1.1,3.5,2.5,7.2,2.5c3.7,0,5.6-1.4,7.2-2.5c1.4-1,2.5-1.7,4.8-1.7s3.4,0.7,4.8,1.7
			c1.6,1.1,3.5,2.5,7.2,2.5c3.7,0,5.6-1.4,7.2-2.5c1.4-1,2.5-1.7,4.8-1.7v-4.2C69.4,65.8,67.4,67.2,65.8,68.3z"/>
		<path class="st0" d="M67,62.7c-1.6,0.7-2.8,1.5-3.7,2.1c-1.2,0.9-1.4,1-2.4,1c-1,0-1.1-0.1-2.4-1c-1.7-1.2-4.6-3.3-9.7-3.3
			s-7.9,2-9.6,3.3c-1.2,0.9-1.4,1-2.4,1s-1.1-0.1-2.4-1c-1.7-1.2-4.6-3.3-9.6-3.3s-7.9,2.1-9.6,3.3c-1.2,0.9-1.4,1-2.4,1
			s-1.1-0.1-2.4-1c-0.9-0.6-2.1-1.4-3.7-2.1c9.1-5.5,19.5-8.3,30-8.3c0.3,0,0.5,0,0.7,0l9.7-26.6l3.9,1.5l-9.2,25.3
			C51,55.4,59.5,58.1,67,62.7L67,62.7z"/>
		<path class="st1" d="M27.6,21.9c1.7,0.1,7.7,0.8,13.4,4.6c0,0,0.1,0,0.1,0.1c8,0.9,11.7,1.9,15.1,5.3c0.1,0.1,0.1,0.1,0.2,0.1
			c1.1,0.1,9.9,1.1,13.9,5.4c0.1,0.1,0.3,0.1,0.5,0c0,0,0.1-0.1,0.1-0.1c1.1-3.7,6.2-24.4-12.8-31C39-0.4,28.9,18.2,27.4,21.4
			c-0.1,0.2,0,0.4,0.2,0.5C27.6,21.9,27.6,21.9,27.6,21.9z"/>
		<rect x="58.4" y="1.3" transform="matrix(0.3497 -0.9369 0.9369 0.3497 35.721 58.1967)" class="st0" width="2.9" height="4.2"/>
	</g>
</g>
</svg>
